<mxfile host="Electron" modified="2023-12-01T08:47:13.127Z" agent="Mozilla/5.0 (Windows NT 10.0; Win64; x64) AppleWebKit/537.36 (KHTML, like Gecko) draw.io/22.1.2 Chrome/114.0.5735.289 Electron/25.9.4 Safari/537.36" etag="3l3-kroXIee425qNbW2d" version="22.1.2" type="device">
  <diagram name="Página-1" id="pJHk1jmKi2Voto7qG9wJ">
    <mxGraphModel dx="8407" dy="3417" grid="1" gridSize="10" guides="1" tooltips="1" connect="1" arrows="1" fold="1" page="1" pageScale="1" pageWidth="827" pageHeight="1169" math="0" shadow="0">
      <root>
        <mxCell id="0" />
        <mxCell id="1" parent="0" />
        <mxCell id="bmZF7T8KRYOrzVGl7_Tg-1" value="" style="endArrow=block;html=1;fontColor=#000099;exitX=0.5;exitY=0;exitDx=0;exitDy=0;endFill=0;entryX=0.5;entryY=1;entryDx=0;entryDy=0;endSize=8;arcSize=0;rounded=0;" parent="1" source="bmZF7T8KRYOrzVGl7_Tg-3" target="bmZF7T8KRYOrzVGl7_Tg-8" edge="1">
          <mxGeometry width="50" height="50" relative="1" as="geometry">
            <mxPoint x="15" y="340" as="sourcePoint" />
            <mxPoint x="295" y="330" as="targetPoint" />
            <Array as="points">
              <mxPoint x="200" y="360" />
              <mxPoint x="295" y="360" />
            </Array>
          </mxGeometry>
        </mxCell>
        <mxCell id="bmZF7T8KRYOrzVGl7_Tg-3" value="sol:Contract" style="rounded=0;whiteSpace=wrap;html=1;snapToPoint=1;points=[[0.1,0],[0.2,0],[0.3,0],[0.4,0],[0.5,0],[0.6,0],[0.7,0],[0.8,0],[0.9,0],[0,0.1],[0,0.3],[0,0.5],[0,0.7],[0,0.9],[0.1,1],[0.2,1],[0.3,1],[0.4,1],[0.5,1],[0.6,1],[0.7,1],[0.8,1],[0.9,1],[1,0.1],[1,0.3],[1,0.5],[1,0.7],[1,0.9]];fillColor=#ffe6cc;strokeColor=#d79b00;" parent="1" vertex="1">
          <mxGeometry x="114" y="379" width="172" height="30" as="geometry" />
        </mxCell>
        <mxCell id="bmZF7T8KRYOrzVGl7_Tg-4" value="&lt;div&gt;&lt;b&gt;dc:title&lt;/b&gt;: &quot;The example ontology&quot;@en&lt;br&gt;&lt;/div&gt;&lt;div&gt;&lt;b&gt;dc:description&lt;/b&gt;: &quot;Brief description of your ontology.&quot;@en &lt;br&gt;&lt;br&gt;&lt;b&gt;dc:created&lt;/b&gt;: &quot;2021-01-01&quot;^^xsd:date &lt;br&gt;&lt;b&gt;dc:creator&lt;/b&gt;: Juan Cano-Benito&lt;br&gt;&lt;b&gt;dc:creator&lt;/b&gt;: Raúl García Castro&lt;/div&gt;&lt;div&gt;&lt;b style=&quot;border-color: var(--border-color);&quot;&gt;dc:creator&lt;/b&gt;: Andrea Cimmino&lt;br style=&quot;border-color: var(--border-color);&quot;&gt;&lt;br&gt;&lt;/div&gt;&lt;div&gt;&lt;b&gt;owl:versionInfo&lt;/b&gt;: &quot;0.0.1&quot;&lt;br&gt;&lt;/div&gt;" style="shape=document;whiteSpace=wrap;html=1;boundedLbl=1;labelBackgroundColor=#ffffff;strokeColor=#000000;fontSize=12;fontColor=#000000;size=0.07407407407407407;" parent="1" vertex="1">
          <mxGeometry x="899" y="2910" width="360" height="250" as="geometry" />
        </mxCell>
        <mxCell id="bmZF7T8KRYOrzVGl7_Tg-5" value="sol:Library" style="rounded=0;whiteSpace=wrap;html=1;snapToPoint=1;points=[[0.1,0],[0.2,0],[0.3,0],[0.4,0],[0.5,0],[0.6,0],[0.7,0],[0.8,0],[0.9,0],[0,0.1],[0,0.3],[0,0.5],[0,0.7],[0,0.9],[0.1,1],[0.2,1],[0.3,1],[0.4,1],[0.5,1],[0.6,1],[0.7,1],[0.8,1],[0.9,1],[1,0.1],[1,0.3],[1,0.5],[1,0.7],[1,0.9]];fillColor=#ffe6cc;strokeColor=#d79b00;" parent="1" vertex="1">
          <mxGeometry x="320" y="379" width="165" height="30" as="geometry" />
        </mxCell>
        <mxCell id="bmZF7T8KRYOrzVGl7_Tg-6" value="" style="endArrow=block;html=1;fontColor=#000099;exitX=0.5;exitY=0;exitDx=0;exitDy=0;endFill=0;entryX=0.5;entryY=1;entryDx=0;entryDy=0;endSize=8;arcSize=0;rounded=0;" parent="1" source="bmZF7T8KRYOrzVGl7_Tg-5" target="bmZF7T8KRYOrzVGl7_Tg-8" edge="1">
          <mxGeometry width="50" height="50" relative="1" as="geometry">
            <mxPoint x="211" y="410" as="sourcePoint" />
            <mxPoint x="295" y="330" as="targetPoint" />
            <Array as="points">
              <mxPoint x="403" y="360" />
              <mxPoint x="295" y="360" />
            </Array>
          </mxGeometry>
        </mxCell>
        <mxCell id="bmZF7T8KRYOrzVGl7_Tg-7" value="&lt;div&gt;&lt;b&gt;sol&lt;/b&gt;:&amp;nbsp;&amp;lt;https://w3id.org/def/SolidityOntology#&amp;gt;&lt;/div&gt;" style="shape=note;whiteSpace=wrap;html=1;backgroundOutline=1;darkOpacity=0.05;" parent="1" vertex="1">
          <mxGeometry x="453" y="2940" width="290" height="90" as="geometry" />
        </mxCell>
        <mxCell id="bmZF7T8KRYOrzVGl7_Tg-8" value="sol:contractName: string&lt;br&gt;sol:version: string" style="rounded=0;whiteSpace=wrap;html=1;snapToPoint=1;points=[[0.1,0],[0.2,0],[0.3,0],[0.4,0],[0.5,0],[0.6,0],[0.7,0],[0.8,0],[0.9,0],[0,0.1],[0,0.3],[0,0.5],[0,0.7],[0,0.9],[0.1,1],[0.2,1],[0.3,1],[0.4,1],[0.5,1],[0.6,1],[0.7,1],[0.8,1],[0.9,1],[1,0.1],[1,0.3],[1,0.5],[1,0.7],[1,0.9]];" parent="1" vertex="1">
          <mxGeometry x="206" y="270" width="179" height="58" as="geometry" />
        </mxCell>
        <mxCell id="bmZF7T8KRYOrzVGl7_Tg-9" value="sol:SmartContract" style="rounded=0;whiteSpace=wrap;html=1;snapToPoint=1;points=[[0.1,0],[0.2,0],[0.3,0],[0.4,0],[0.5,0],[0.6,0],[0.7,0],[0.8,0],[0.9,0],[0,0.1],[0,0.3],[0,0.5],[0,0.7],[0,0.9],[0.1,1],[0.2,1],[0.3,1],[0.4,1],[0.5,1],[0.6,1],[0.7,1],[0.8,1],[0.9,1],[1,0.1],[1,0.3],[1,0.5],[1,0.7],[1,0.9]];fillColor=#ffe6cc;strokeColor=#d79b00;" parent="1" vertex="1">
          <mxGeometry x="206" y="239.9999999999999" width="179" height="30" as="geometry" />
        </mxCell>
        <mxCell id="bmZF7T8KRYOrzVGl7_Tg-10" value="" style="endArrow=classic;html=1;exitX=1;exitY=0.5;exitDx=0;exitDy=0;endSize=8;arcSize=0;rounded=0;entryX=0.9;entryY=0;entryDx=0;entryDy=0;" parent="1" source="bmZF7T8KRYOrzVGl7_Tg-8" target="bmZF7T8KRYOrzVGl7_Tg-12" edge="1">
          <mxGeometry width="50" height="50" relative="1" as="geometry">
            <mxPoint x="370" y="294.5" as="sourcePoint" />
            <mxPoint x="520" y="293" as="targetPoint" />
            <Array as="points">
              <mxPoint x="602" y="300" />
            </Array>
          </mxGeometry>
        </mxCell>
        <mxCell id="bmZF7T8KRYOrzVGl7_Tg-11" value="sol:hasImplementationStructType" style="text;html=1;align=center;verticalAlign=middle;resizable=0;points=[];labelBackgroundColor=#ffffff;" parent="bmZF7T8KRYOrzVGl7_Tg-10" vertex="1" connectable="0">
          <mxGeometry x="-0.1269" relative="1" as="geometry">
            <mxPoint x="-42" y="-543" as="offset" />
          </mxGeometry>
        </mxCell>
        <mxCell id="bmZF7T8KRYOrzVGl7_Tg-12" value="sol:StructType" style="rounded=0;whiteSpace=wrap;html=1;snapToPoint=1;points=[[0.1,0],[0.2,0],[0.3,0],[0.4,0],[0.5,0],[0.6,0],[0.7,0],[0.8,0],[0.9,0],[0,0.1],[0,0.3],[0,0.5],[0,0.7],[0,0.9],[0.1,1],[0.2,1],[0.3,1],[0.4,1],[0.5,1],[0.6,1],[0.7,1],[0.8,1],[0.9,1],[1,0.1],[1,0.3],[1,0.5],[1,0.7],[1,0.9]];fillColor=#d5e8d4;strokeColor=#82b366;" parent="1" vertex="1">
          <mxGeometry x="453" y="1870" width="165" height="30" as="geometry" />
        </mxCell>
        <mxCell id="bmZF7T8KRYOrzVGl7_Tg-14" value="sol:Abstract" style="rounded=0;whiteSpace=wrap;html=1;snapToPoint=1;points=[[0.1,0],[0.2,0],[0.3,0],[0.4,0],[0.5,0],[0.6,0],[0.7,0],[0.8,0],[0.9,0],[0,0.1],[0,0.3],[0,0.5],[0,0.7],[0,0.9],[0.1,1],[0.2,1],[0.3,1],[0.4,1],[0.5,1],[0.6,1],[0.7,1],[0.8,1],[0.9,1],[1,0.1],[1,0.3],[1,0.5],[1,0.7],[1,0.9]];" parent="1" vertex="1">
          <mxGeometry x="-220" y="425.0000000000002" width="120" height="30" as="geometry" />
        </mxCell>
        <mxCell id="bmZF7T8KRYOrzVGl7_Tg-16" value="" style="endArrow=classic;html=1;endSize=8;arcSize=0;rounded=0;entryX=0.986;entryY=0.508;entryDx=0;entryDy=0;exitX=0.1;exitY=1;exitDx=0;exitDy=0;entryPerimeter=0;" parent="1" source="bmZF7T8KRYOrzVGl7_Tg-3" target="bmZF7T8KRYOrzVGl7_Tg-14" edge="1">
          <mxGeometry width="50" height="50" relative="1" as="geometry">
            <mxPoint x="133.19999999999982" y="409" as="sourcePoint" />
            <mxPoint x="-98" y="435.0000000000002" as="targetPoint" />
            <Array as="points">
              <mxPoint x="132" y="440" />
            </Array>
          </mxGeometry>
        </mxCell>
        <mxCell id="bmZF7T8KRYOrzVGl7_Tg-17" value="sol:isAbstract" style="text;html=1;align=center;verticalAlign=middle;resizable=0;points=[];labelBackgroundColor=#ffffff;" parent="bmZF7T8KRYOrzVGl7_Tg-16" vertex="1" connectable="0">
          <mxGeometry x="-0.1269" relative="1" as="geometry">
            <mxPoint as="offset" />
          </mxGeometry>
        </mxCell>
        <mxCell id="bmZF7T8KRYOrzVGl7_Tg-18" value="sol:ConstructorSpecification" style="rounded=0;whiteSpace=wrap;html=1;snapToPoint=1;points=[[0.1,0],[0.2,0],[0.3,0],[0.4,0],[0.5,0],[0.6,0],[0.7,0],[0.8,0],[0.9,0],[0,0.1],[0,0.3],[0,0.5],[0,0.7],[0,0.9],[0.1,1],[0.2,1],[0.3,1],[0.4,1],[0.5,1],[0.6,1],[0.7,1],[0.8,1],[0.9,1],[1,0.1],[1,0.3],[1,0.5],[1,0.7],[1,0.9]];fillColor=#e1d5e7;strokeColor=#9673a6;" parent="1" vertex="1">
          <mxGeometry x="-760" y="899" width="160" height="30" as="geometry" />
        </mxCell>
        <mxCell id="bmZF7T8KRYOrzVGl7_Tg-19" value="" style="endArrow=classic;html=1;exitX=0.2;exitY=1;exitDx=0;exitDy=0;endSize=8;arcSize=0;rounded=0;entryX=0.5;entryY=0;entryDx=0;entryDy=0;" parent="1" source="bmZF7T8KRYOrzVGl7_Tg-3" target="bmZF7T8KRYOrzVGl7_Tg-18" edge="1">
          <mxGeometry width="50" height="50" relative="1" as="geometry">
            <mxPoint x="131.20000000000027" y="440" as="sourcePoint" />
            <mxPoint x="140" y="338" as="targetPoint" />
            <Array as="points">
              <mxPoint x="148" y="470" />
              <mxPoint x="-680" y="470" />
            </Array>
          </mxGeometry>
        </mxCell>
        <mxCell id="bmZF7T8KRYOrzVGl7_Tg-20" value="sol:hasContractConstructor" style="text;html=1;align=center;verticalAlign=middle;resizable=0;points=[];labelBackgroundColor=#ffffff;" parent="bmZF7T8KRYOrzVGl7_Tg-19" vertex="1" connectable="0">
          <mxGeometry x="-0.1269" relative="1" as="geometry">
            <mxPoint x="-206" as="offset" />
          </mxGeometry>
        </mxCell>
        <mxCell id="bmZF7T8KRYOrzVGl7_Tg-21" value="sol:FunctionSpecification" style="rounded=0;whiteSpace=wrap;html=1;snapToPoint=1;points=[[0.1,0],[0.2,0],[0.3,0],[0.4,0],[0.5,0],[0.6,0],[0.7,0],[0.8,0],[0.9,0],[0,0.1],[0,0.3],[0,0.5],[0,0.7],[0,0.9],[0.1,1],[0.2,1],[0.3,1],[0.4,1],[0.5,1],[0.6,1],[0.7,1],[0.8,1],[0.9,1],[1,0.1],[1,0.3],[1,0.5],[1,0.7],[1,0.9]];fillColor=#e1d5e7;strokeColor=#9673a6;" parent="1" vertex="1">
          <mxGeometry x="640" y="891" width="160" height="30" as="geometry" />
        </mxCell>
        <mxCell id="bmZF7T8KRYOrzVGl7_Tg-22" value="sol:hasCode: string" style="rounded=0;whiteSpace=wrap;html=1;snapToPoint=1;points=[[0.1,0],[0.2,0],[0.3,0],[0.4,0],[0.5,0],[0.6,0],[0.7,0],[0.8,0],[0.9,0],[0,0.1],[0,0.3],[0,0.5],[0,0.7],[0,0.9],[0.1,1],[0.2,1],[0.3,1],[0.4,1],[0.5,1],[0.6,1],[0.7,1],[0.8,1],[0.9,1],[1,0.1],[1,0.3],[1,0.5],[1,0.7],[1,0.9]];" parent="1" vertex="1">
          <mxGeometry x="-760" y="929" width="160" height="31" as="geometry" />
        </mxCell>
        <mxCell id="bmZF7T8KRYOrzVGl7_Tg-23" value="sol:hasName: string&lt;br&gt;sol:hasCode: string" style="rounded=0;whiteSpace=wrap;html=1;snapToPoint=1;points=[[0.1,0],[0.2,0],[0.3,0],[0.4,0],[0.5,0],[0.6,0],[0.7,0],[0.8,0],[0.9,0],[0,0.1],[0,0.3],[0,0.5],[0,0.7],[0,0.9],[0.1,1],[0.2,1],[0.3,1],[0.4,1],[0.5,1],[0.6,1],[0.7,1],[0.8,1],[0.9,1],[1,0.1],[1,0.3],[1,0.5],[1,0.7],[1,0.9]];" parent="1" vertex="1">
          <mxGeometry x="640" y="921" width="160" height="40" as="geometry" />
        </mxCell>
        <mxCell id="bmZF7T8KRYOrzVGl7_Tg-25" value="" style="endArrow=classic;html=1;endSize=8;arcSize=0;rounded=0;entryX=0.5;entryY=0;entryDx=0;entryDy=0;exitX=0.999;exitY=0.219;exitDx=0;exitDy=0;exitPerimeter=0;" parent="1" source="bmZF7T8KRYOrzVGl7_Tg-8" target="bmZF7T8KRYOrzVGl7_Tg-21" edge="1">
          <mxGeometry width="50" height="50" relative="1" as="geometry">
            <mxPoint x="780" y="330" as="sourcePoint" />
            <mxPoint x="30" y="600" as="targetPoint" />
            <Array as="points">
              <mxPoint x="720" y="283" />
              <mxPoint x="720" y="510" />
            </Array>
          </mxGeometry>
        </mxCell>
        <mxCell id="bmZF7T8KRYOrzVGl7_Tg-26" value="sol:hasImplementationFunction" style="text;html=1;align=center;verticalAlign=middle;resizable=0;points=[];labelBackgroundColor=#ffffff;" parent="bmZF7T8KRYOrzVGl7_Tg-25" vertex="1" connectable="0">
          <mxGeometry x="-0.1269" relative="1" as="geometry">
            <mxPoint x="-20" y="436" as="offset" />
          </mxGeometry>
        </mxCell>
        <mxCell id="bmZF7T8KRYOrzVGl7_Tg-27" value="sol:ModifierSpecification" style="rounded=0;whiteSpace=wrap;html=1;snapToPoint=1;points=[[0.1,0],[0.2,0],[0.3,0],[0.4,0],[0.5,0],[0.6,0],[0.7,0],[0.8,0],[0.9,0],[0,0.1],[0,0.3],[0,0.5],[0,0.7],[0,0.9],[0.1,1],[0.2,1],[0.3,1],[0.4,1],[0.5,1],[0.6,1],[0.7,1],[0.8,1],[0.9,1],[1,0.1],[1,0.3],[1,0.5],[1,0.7],[1,0.9]];fillColor=#e1d5e7;strokeColor=#9673a6;" parent="1" vertex="1">
          <mxGeometry x="880" y="891" width="160" height="30" as="geometry" />
        </mxCell>
        <mxCell id="bmZF7T8KRYOrzVGl7_Tg-28" value="sol:hasName: string&lt;br&gt;sol:hasCode: string" style="rounded=0;whiteSpace=wrap;html=1;snapToPoint=1;points=[[0.1,0],[0.2,0],[0.3,0],[0.4,0],[0.5,0],[0.6,0],[0.7,0],[0.8,0],[0.9,0],[0,0.1],[0,0.3],[0,0.5],[0,0.7],[0,0.9],[0.1,1],[0.2,1],[0.3,1],[0.4,1],[0.5,1],[0.6,1],[0.7,1],[0.8,1],[0.9,1],[1,0.1],[1,0.3],[1,0.5],[1,0.7],[1,0.9]];" parent="1" vertex="1">
          <mxGeometry x="880" y="921" width="160" height="40" as="geometry" />
        </mxCell>
        <mxCell id="bmZF7T8KRYOrzVGl7_Tg-31" value="" style="endArrow=classic;html=1;exitX=1.004;exitY=-0.043;exitDx=0;exitDy=0;endSize=8;arcSize=0;rounded=0;entryX=0.5;entryY=0;entryDx=0;entryDy=0;exitPerimeter=0;" parent="1" source="bmZF7T8KRYOrzVGl7_Tg-8" target="bmZF7T8KRYOrzVGl7_Tg-27" edge="1">
          <mxGeometry width="50" height="50" relative="1" as="geometry">
            <mxPoint x="206" y="498" as="sourcePoint" />
            <mxPoint x="92" y="562" as="targetPoint" />
            <Array as="points">
              <mxPoint x="960" y="270" />
            </Array>
          </mxGeometry>
        </mxCell>
        <mxCell id="bmZF7T8KRYOrzVGl7_Tg-32" value="sol:hasImplementationModifier" style="text;html=1;align=center;verticalAlign=middle;resizable=0;points=[];labelBackgroundColor=#ffffff;" parent="bmZF7T8KRYOrzVGl7_Tg-31" vertex="1" connectable="0">
          <mxGeometry x="-0.1269" relative="1" as="geometry">
            <mxPoint x="-60" as="offset" />
          </mxGeometry>
        </mxCell>
        <mxCell id="bmZF7T8KRYOrzVGl7_Tg-33" value="sol:FallbackSpecification" style="rounded=0;whiteSpace=wrap;html=1;snapToPoint=1;points=[[0.1,0],[0.2,0],[0.3,0],[0.4,0],[0.5,0],[0.6,0],[0.7,0],[0.8,0],[0.9,0],[0,0.1],[0,0.3],[0,0.5],[0,0.7],[0,0.9],[0.1,1],[0.2,1],[0.3,1],[0.4,1],[0.5,1],[0.6,1],[0.7,1],[0.8,1],[0.9,1],[1,0.1],[1,0.3],[1,0.5],[1,0.7],[1,0.9]];fillColor=#e1d5e7;strokeColor=#9673a6;" parent="1" vertex="1">
          <mxGeometry x="-520" y="891" width="160" height="30" as="geometry" />
        </mxCell>
        <mxCell id="bmZF7T8KRYOrzVGl7_Tg-34" value="sol:hasCode: string" style="rounded=0;whiteSpace=wrap;html=1;snapToPoint=1;points=[[0.1,0],[0.2,0],[0.3,0],[0.4,0],[0.5,0],[0.6,0],[0.7,0],[0.8,0],[0.9,0],[0,0.1],[0,0.3],[0,0.5],[0,0.7],[0,0.9],[0.1,1],[0.2,1],[0.3,1],[0.4,1],[0.5,1],[0.6,1],[0.7,1],[0.8,1],[0.9,1],[1,0.1],[1,0.3],[1,0.5],[1,0.7],[1,0.9]];" parent="1" vertex="1">
          <mxGeometry x="-520" y="921" width="160" height="29" as="geometry" />
        </mxCell>
        <mxCell id="bmZF7T8KRYOrzVGl7_Tg-35" value="sol:ReceiveSpecification" style="rounded=0;whiteSpace=wrap;html=1;snapToPoint=1;points=[[0.1,0],[0.2,0],[0.3,0],[0.4,0],[0.5,0],[0.6,0],[0.7,0],[0.8,0],[0.9,0],[0,0.1],[0,0.3],[0,0.5],[0,0.7],[0,0.9],[0.1,1],[0.2,1],[0.3,1],[0.4,1],[0.5,1],[0.6,1],[0.7,1],[0.8,1],[0.9,1],[1,0.1],[1,0.3],[1,0.5],[1,0.7],[1,0.9]];fillColor=#e1d5e7;strokeColor=#9673a6;" parent="1" vertex="1">
          <mxGeometry x="-282" y="891" width="160" height="30" as="geometry" />
        </mxCell>
        <mxCell id="bmZF7T8KRYOrzVGl7_Tg-36" value="sol:hasCode: string" style="rounded=0;whiteSpace=wrap;html=1;snapToPoint=1;points=[[0.1,0],[0.2,0],[0.3,0],[0.4,0],[0.5,0],[0.6,0],[0.7,0],[0.8,0],[0.9,0],[0,0.1],[0,0.3],[0,0.5],[0,0.7],[0,0.9],[0.1,1],[0.2,1],[0.3,1],[0.4,1],[0.5,1],[0.6,1],[0.7,1],[0.8,1],[0.9,1],[1,0.1],[1,0.3],[1,0.5],[1,0.7],[1,0.9]];" parent="1" vertex="1">
          <mxGeometry x="-282" y="921" width="160" height="29" as="geometry" />
        </mxCell>
        <mxCell id="bmZF7T8KRYOrzVGl7_Tg-37" value="sol:EventSpecification" style="rounded=0;whiteSpace=wrap;html=1;snapToPoint=1;points=[[0.1,0],[0.2,0],[0.3,0],[0.4,0],[0.5,0],[0.6,0],[0.7,0],[0.8,0],[0.9,0],[0,0.1],[0,0.3],[0,0.5],[0,0.7],[0,0.9],[0.1,1],[0.2,1],[0.3,1],[0.4,1],[0.5,1],[0.6,1],[0.7,1],[0.8,1],[0.9,1],[1,0.1],[1,0.3],[1,0.5],[1,0.7],[1,0.9]];fillColor=#e1d5e7;strokeColor=#9673a6;" parent="1" vertex="1">
          <mxGeometry x="1110" y="889" width="160" height="30" as="geometry" />
        </mxCell>
        <mxCell id="bmZF7T8KRYOrzVGl7_Tg-38" value="sol:hasName: string&lt;br&gt;sol:isAnonymous: boolean" style="rounded=0;whiteSpace=wrap;html=1;snapToPoint=1;points=[[0.1,0],[0.2,0],[0.3,0],[0.4,0],[0.5,0],[0.6,0],[0.7,0],[0.8,0],[0.9,0],[0,0.1],[0,0.3],[0,0.5],[0,0.7],[0,0.9],[0.1,1],[0.2,1],[0.3,1],[0.4,1],[0.5,1],[0.6,1],[0.7,1],[0.8,1],[0.9,1],[1,0.1],[1,0.3],[1,0.5],[1,0.7],[1,0.9]];" parent="1" vertex="1">
          <mxGeometry x="1110" y="919" width="160" height="40" as="geometry" />
        </mxCell>
        <mxCell id="bmZF7T8KRYOrzVGl7_Tg-39" value="" style="endArrow=classic;html=1;endSize=8;arcSize=0;rounded=0;entryX=0.5;entryY=0;entryDx=0;entryDy=0;exitX=0.3;exitY=1;exitDx=0;exitDy=0;" parent="1" source="bmZF7T8KRYOrzVGl7_Tg-3" target="bmZF7T8KRYOrzVGl7_Tg-33" edge="1">
          <mxGeometry width="50" height="50" relative="1" as="geometry">
            <mxPoint x="165.5999999999999" y="440" as="sourcePoint" />
            <mxPoint x="94" y="650" as="targetPoint" />
            <Array as="points">
              <mxPoint x="166" y="530" />
              <mxPoint x="-440" y="530" />
            </Array>
          </mxGeometry>
        </mxCell>
        <mxCell id="bmZF7T8KRYOrzVGl7_Tg-40" value="sol:hasContractFallback" style="text;html=1;align=center;verticalAlign=middle;resizable=0;points=[];labelBackgroundColor=#ffffff;rotation=0;" parent="bmZF7T8KRYOrzVGl7_Tg-39" vertex="1" connectable="0">
          <mxGeometry x="-0.1269" relative="1" as="geometry">
            <mxPoint x="6" as="offset" />
          </mxGeometry>
        </mxCell>
        <mxCell id="bmZF7T8KRYOrzVGl7_Tg-43" value="" style="endArrow=classic;html=1;exitX=0.5;exitY=1;exitDx=0;exitDy=0;endSize=8;arcSize=0;rounded=0;entryX=0.5;entryY=0;entryDx=0;entryDy=0;" parent="1" source="bmZF7T8KRYOrzVGl7_Tg-3" target="bmZF7T8KRYOrzVGl7_Tg-35" edge="1">
          <mxGeometry width="50" height="50" relative="1" as="geometry">
            <mxPoint x="200" y="440" as="sourcePoint" />
            <mxPoint x="153.5" y="715" as="targetPoint" />
            <Array as="points">
              <mxPoint x="200" y="600" />
              <mxPoint x="-200" y="600" />
            </Array>
          </mxGeometry>
        </mxCell>
        <mxCell id="bmZF7T8KRYOrzVGl7_Tg-44" value="sol:hasContractReceive" style="text;html=1;align=center;verticalAlign=middle;resizable=0;points=[];labelBackgroundColor=#ffffff;rotation=0;" parent="bmZF7T8KRYOrzVGl7_Tg-43" vertex="1" connectable="0">
          <mxGeometry x="-0.1269" relative="1" as="geometry">
            <mxPoint x="40" as="offset" />
          </mxGeometry>
        </mxCell>
        <mxCell id="bmZF7T8KRYOrzVGl7_Tg-45" value="" style="endArrow=classic;html=1;exitX=1;exitY=0.3;exitDx=0;exitDy=0;endSize=8;arcSize=0;rounded=0;entryX=0.5;entryY=0;entryDx=0;entryDy=0;" parent="1" source="bmZF7T8KRYOrzVGl7_Tg-9" target="bmZF7T8KRYOrzVGl7_Tg-37" edge="1">
          <mxGeometry width="50" height="50" relative="1" as="geometry">
            <mxPoint x="420" y="440" as="sourcePoint" />
            <mxPoint x="427" y="700" as="targetPoint" />
            <Array as="points">
              <mxPoint x="1190" y="250" />
            </Array>
          </mxGeometry>
        </mxCell>
        <mxCell id="bmZF7T8KRYOrzVGl7_Tg-46" value="sol:hasImplementationEvent" style="text;html=1;align=center;verticalAlign=middle;resizable=0;points=[];labelBackgroundColor=#ffffff;rotation=0;" parent="bmZF7T8KRYOrzVGl7_Tg-45" vertex="1" connectable="0">
          <mxGeometry x="-0.1269" relative="1" as="geometry">
            <mxPoint x="85" as="offset" />
          </mxGeometry>
        </mxCell>
        <mxCell id="bmZF7T8KRYOrzVGl7_Tg-47" value="" style="endArrow=classic;html=1;exitX=0.9;exitY=1;exitDx=0;exitDy=0;endSize=8;arcSize=0;rounded=0;entryX=0.4;entryY=0;entryDx=0;entryDy=0;" parent="1" source="bmZF7T8KRYOrzVGl7_Tg-3" target="bmZF7T8KRYOrzVGl7_Tg-50" edge="1">
          <mxGeometry width="50" height="50" relative="1" as="geometry">
            <mxPoint x="268.7999999999993" y="440" as="sourcePoint" />
            <mxPoint x="380" y="490" as="targetPoint" />
            <Array as="points">
              <mxPoint x="269" y="490" />
              <mxPoint x="264" y="490" />
            </Array>
          </mxGeometry>
        </mxCell>
        <mxCell id="bmZF7T8KRYOrzVGl7_Tg-48" value="sol:hasContractUsingForDirective" style="text;html=1;align=center;verticalAlign=middle;resizable=0;points=[];labelBackgroundColor=#ffffff;rotation=0;" parent="bmZF7T8KRYOrzVGl7_Tg-47" vertex="1" connectable="0">
          <mxGeometry x="-0.1269" relative="1" as="geometry">
            <mxPoint x="-58" y="167" as="offset" />
          </mxGeometry>
        </mxCell>
        <mxCell id="bmZF7T8KRYOrzVGl7_Tg-50" value="sol:UsingForDirective" style="rounded=0;whiteSpace=wrap;html=1;snapToPoint=1;points=[[0.1,0],[0.2,0],[0.3,0],[0.4,0],[0.5,0],[0.6,0],[0.7,0],[0.8,0],[0.9,0],[0,0.1],[0,0.3],[0,0.5],[0,0.7],[0,0.9],[0.1,1],[0.2,1],[0.3,1],[0.4,1],[0.5,1],[0.6,1],[0.7,1],[0.8,1],[0.9,1],[1,0.1],[1,0.3],[1,0.5],[1,0.7],[1,0.9]];fillColor=#e1d5e7;strokeColor=#9673a6;" parent="1" vertex="1">
          <mxGeometry x="200" y="901" width="160" height="30" as="geometry" />
        </mxCell>
        <mxCell id="bmZF7T8KRYOrzVGl7_Tg-51" value="sol:usingForName: string&lt;br&gt;" style="rounded=0;whiteSpace=wrap;html=1;snapToPoint=1;points=[[0.1,0],[0.2,0],[0.3,0],[0.4,0],[0.5,0],[0.6,0],[0.7,0],[0.8,0],[0.9,0],[0,0.1],[0,0.3],[0,0.5],[0,0.7],[0,0.9],[0.1,1],[0.2,1],[0.3,1],[0.4,1],[0.5,1],[0.6,1],[0.7,1],[0.8,1],[0.9,1],[1,0.1],[1,0.3],[1,0.5],[1,0.7],[1,0.9]];" parent="1" vertex="1">
          <mxGeometry x="200" y="931" width="160" height="30" as="geometry" />
        </mxCell>
        <mxCell id="bmZF7T8KRYOrzVGl7_Tg-52" value="" style="endArrow=classic;html=1;exitX=0.7;exitY=0;exitDx=0;exitDy=0;endSize=8;arcSize=0;rounded=0;entryX=0.3;entryY=1;entryDx=0;entryDy=0;" parent="1" source="bmZF7T8KRYOrzVGl7_Tg-50" target="bmZF7T8KRYOrzVGl7_Tg-5" edge="1">
          <mxGeometry width="50" height="50" relative="1" as="geometry">
            <mxPoint x="570" y="448" as="sourcePoint" />
            <mxPoint x="669" y="508" as="targetPoint" />
            <Array as="points">
              <mxPoint x="312" y="730" />
              <mxPoint x="369" y="730" />
              <mxPoint x="370" y="530" />
              <mxPoint x="370" y="440" />
            </Array>
          </mxGeometry>
        </mxCell>
        <mxCell id="bmZF7T8KRYOrzVGl7_Tg-53" value="sol:isUsingLibrary" style="text;html=1;align=center;verticalAlign=middle;resizable=0;points=[];labelBackgroundColor=#ffffff;rotation=0;" parent="bmZF7T8KRYOrzVGl7_Tg-52" vertex="1" connectable="0">
          <mxGeometry x="-0.1269" relative="1" as="geometry">
            <mxPoint x="-27" y="12" as="offset" />
          </mxGeometry>
        </mxCell>
        <mxCell id="bmZF7T8KRYOrzVGl7_Tg-54" value="sol:AttributeSpecification" style="rounded=0;whiteSpace=wrap;html=1;snapToPoint=1;points=[[0.1,0],[0.2,0],[0.3,0],[0.4,0],[0.5,0],[0.6,0],[0.7,0],[0.8,0],[0.9,0],[0,0.1],[0,0.3],[0,0.5],[0,0.7],[0,0.9],[0.1,1],[0.2,1],[0.3,1],[0.4,1],[0.5,1],[0.6,1],[0.7,1],[0.8,1],[0.9,1],[1,0.1],[1,0.3],[1,0.5],[1,0.7],[1,0.9]];fillColor=#e1d5e7;strokeColor=#9673a6;" parent="1" vertex="1">
          <mxGeometry x="-40" y="900" width="160" height="30" as="geometry" />
        </mxCell>
        <mxCell id="bmZF7T8KRYOrzVGl7_Tg-55" value="sol:hasName: string" style="rounded=0;whiteSpace=wrap;html=1;snapToPoint=1;points=[[0.1,0],[0.2,0],[0.3,0],[0.4,0],[0.5,0],[0.6,0],[0.7,0],[0.8,0],[0.9,0],[0,0.1],[0,0.3],[0,0.5],[0,0.7],[0,0.9],[0.1,1],[0.2,1],[0.3,1],[0.4,1],[0.5,1],[0.6,1],[0.7,1],[0.8,1],[0.9,1],[1,0.1],[1,0.3],[1,0.5],[1,0.7],[1,0.9]];" parent="1" vertex="1">
          <mxGeometry x="-40" y="930" width="160" height="30" as="geometry" />
        </mxCell>
        <mxCell id="bmZF7T8KRYOrzVGl7_Tg-56" value="" style="endArrow=classic;html=1;exitX=0.7;exitY=1;exitDx=0;exitDy=0;endSize=8;arcSize=0;rounded=0;" parent="1" source="bmZF7T8KRYOrzVGl7_Tg-3" target="bmZF7T8KRYOrzVGl7_Tg-54" edge="1">
          <mxGeometry width="50" height="50" relative="1" as="geometry">
            <mxPoint x="234.4000000000001" y="440" as="sourcePoint" />
            <mxPoint x="729" y="611" as="targetPoint" />
            <Array as="points">
              <mxPoint x="234" y="580" />
              <mxPoint x="234" y="720" />
              <mxPoint x="40" y="720" />
            </Array>
          </mxGeometry>
        </mxCell>
        <mxCell id="bmZF7T8KRYOrzVGl7_Tg-57" value="sol:hasContractAttribute" style="text;html=1;align=center;verticalAlign=middle;resizable=0;points=[];labelBackgroundColor=#ffffff;rotation=0;" parent="bmZF7T8KRYOrzVGl7_Tg-56" vertex="1" connectable="0">
          <mxGeometry x="-0.1269" relative="1" as="geometry">
            <mxPoint x="-97" as="offset" />
          </mxGeometry>
        </mxCell>
        <mxCell id="7H-r3v3xN0h7ExLqmK3x-1" value="" style="endArrow=classic;html=1;exitX=0.5;exitY=1;exitDx=0;exitDy=0;endSize=8;arcSize=0;rounded=0;entryX=0.1;entryY=0;entryDx=0;entryDy=0;" parent="1" source="bmZF7T8KRYOrzVGl7_Tg-22" target="7H-r3v3xN0h7ExLqmK3x-71" edge="1">
          <mxGeometry width="50" height="50" relative="1" as="geometry">
            <mxPoint x="-256" y="409" as="sourcePoint" />
            <mxPoint x="-680" y="1080" as="targetPoint" />
            <Array as="points">
              <mxPoint x="-680" y="1180" />
              <mxPoint x="-680" y="1320" />
              <mxPoint x="911" y="1320" />
            </Array>
          </mxGeometry>
        </mxCell>
        <mxCell id="7H-r3v3xN0h7ExLqmK3x-2" value="sol:hasConstructorArguments" style="text;html=1;align=center;verticalAlign=middle;resizable=0;points=[];labelBackgroundColor=#ffffff;" parent="7H-r3v3xN0h7ExLqmK3x-1" vertex="1" connectable="0">
          <mxGeometry x="-0.1269" relative="1" as="geometry">
            <mxPoint x="946" as="offset" />
          </mxGeometry>
        </mxCell>
        <mxCell id="7H-r3v3xN0h7ExLqmK3x-3" value="sol:CodelessFunctionSpecification" style="rounded=0;whiteSpace=wrap;html=1;snapToPoint=1;points=[[0.1,0],[0.2,0],[0.3,0],[0.4,0],[0.5,0],[0.6,0],[0.7,0],[0.8,0],[0.9,0],[0,0.1],[0,0.3],[0,0.5],[0,0.7],[0,0.9],[0.1,1],[0.2,1],[0.3,1],[0.4,1],[0.5,1],[0.6,1],[0.7,1],[0.8,1],[0.9,1],[1,0.1],[1,0.3],[1,0.5],[1,0.7],[1,0.9]];fillColor=#e1d5e7;strokeColor=#9673a6;" parent="1" vertex="1">
          <mxGeometry x="-1040" y="900" width="200" height="30" as="geometry" />
        </mxCell>
        <mxCell id="7H-r3v3xN0h7ExLqmK3x-4" value="sol:hasName: string" style="rounded=0;whiteSpace=wrap;html=1;snapToPoint=1;points=[[0.1,0],[0.2,0],[0.3,0],[0.4,0],[0.5,0],[0.6,0],[0.7,0],[0.8,0],[0.9,0],[0,0.1],[0,0.3],[0,0.5],[0,0.7],[0,0.9],[0.1,1],[0.2,1],[0.3,1],[0.4,1],[0.5,1],[0.6,1],[0.7,1],[0.8,1],[0.9,1],[1,0.1],[1,0.3],[1,0.5],[1,0.7],[1,0.9]];" parent="1" vertex="1">
          <mxGeometry x="-1040" y="930" width="200" height="31" as="geometry" />
        </mxCell>
        <mxCell id="7H-r3v3xN0h7ExLqmK3x-5" value="" style="endArrow=classic;html=1;exitX=0;exitY=0.5;exitDx=0;exitDy=0;endSize=8;arcSize=0;rounded=0;entryX=0.8;entryY=0;entryDx=0;entryDy=0;" parent="1" source="bmZF7T8KRYOrzVGl7_Tg-14" target="7H-r3v3xN0h7ExLqmK3x-3" edge="1">
          <mxGeometry width="50" height="50" relative="1" as="geometry">
            <mxPoint x="-339" y="370" as="sourcePoint" />
            <mxPoint x="-1150" y="829" as="targetPoint" />
            <Array as="points">
              <mxPoint x="-880" y="440" />
            </Array>
          </mxGeometry>
        </mxCell>
        <mxCell id="7H-r3v3xN0h7ExLqmK3x-6" value="sol:hasContractAbstractFunction" style="text;html=1;align=center;verticalAlign=middle;resizable=0;points=[];labelBackgroundColor=#ffffff;" parent="7H-r3v3xN0h7ExLqmK3x-5" vertex="1" connectable="0">
          <mxGeometry x="-0.1269" relative="1" as="geometry">
            <mxPoint x="-56" y="1" as="offset" />
          </mxGeometry>
        </mxCell>
        <mxCell id="7H-r3v3xN0h7ExLqmK3x-7" value="sol:Interface" style="rounded=0;whiteSpace=wrap;html=1;snapToPoint=1;points=[[0.1,0],[0.2,0],[0.3,0],[0.4,0],[0.5,0],[0.6,0],[0.7,0],[0.8,0],[0.9,0],[0,0.1],[0,0.3],[0,0.5],[0,0.7],[0,0.9],[0.1,1],[0.2,1],[0.3,1],[0.4,1],[0.5,1],[0.6,1],[0.7,1],[0.8,1],[0.9,1],[1,0.1],[1,0.3],[1,0.5],[1,0.7],[1,0.9]];fillColor=#ffe6cc;strokeColor=#d79b00;" parent="1" vertex="1">
          <mxGeometry x="-80" y="379" width="172" height="30" as="geometry" />
        </mxCell>
        <mxCell id="7H-r3v3xN0h7ExLqmK3x-8" value="" style="endArrow=classic;html=1;exitX=0;exitY=0.1;exitDx=0;exitDy=0;endSize=8;arcSize=0;rounded=0;entryX=0.4;entryY=0;entryDx=0;entryDy=0;" parent="1" source="bmZF7T8KRYOrzVGl7_Tg-8" target="7H-r3v3xN0h7ExLqmK3x-7" edge="1">
          <mxGeometry width="50" height="50" relative="1" as="geometry">
            <mxPoint x="200" y="268.95" as="sourcePoint" />
            <mxPoint x="-4" y="268.95" as="targetPoint" />
            <Array as="points">
              <mxPoint x="-11" y="276" />
            </Array>
          </mxGeometry>
        </mxCell>
        <mxCell id="7H-r3v3xN0h7ExLqmK3x-9" value="sol:hasInterface" style="text;html=1;align=center;verticalAlign=middle;resizable=0;points=[];labelBackgroundColor=#ffffff;" parent="7H-r3v3xN0h7ExLqmK3x-8" vertex="1" connectable="0">
          <mxGeometry x="-0.1269" relative="1" as="geometry">
            <mxPoint x="-47" y="5" as="offset" />
          </mxGeometry>
        </mxCell>
        <mxCell id="7H-r3v3xN0h7ExLqmK3x-11" value="" style="endArrow=classic;html=1;exitX=0;exitY=0.5;exitDx=0;exitDy=0;endSize=8;arcSize=0;rounded=0;entryX=0.5;entryY=0;entryDx=0;entryDy=0;" parent="1" source="7H-r3v3xN0h7ExLqmK3x-7" target="7H-r3v3xN0h7ExLqmK3x-3" edge="1">
          <mxGeometry width="50" height="50" relative="1" as="geometry">
            <mxPoint x="-170" y="250" as="sourcePoint" />
            <mxPoint x="-840" y="756" as="targetPoint" />
            <Array as="points">
              <mxPoint x="-940" y="394" />
            </Array>
          </mxGeometry>
        </mxCell>
        <mxCell id="7H-r3v3xN0h7ExLqmK3x-12" value="sol:hasInterfaceFunction" style="text;html=1;align=center;verticalAlign=middle;resizable=0;points=[];labelBackgroundColor=#ffffff;" parent="7H-r3v3xN0h7ExLqmK3x-11" vertex="1" connectable="0">
          <mxGeometry x="-0.1269" relative="1" as="geometry">
            <mxPoint x="-76" as="offset" />
          </mxGeometry>
        </mxCell>
        <mxCell id="7H-r3v3xN0h7ExLqmK3x-13" value="" style="endArrow=classic;html=1;exitX=0.1;exitY=1;exitDx=0;exitDy=0;endSize=8;arcSize=0;rounded=0;entryX=0.5;entryY=0;entryDx=0;entryDy=0;" parent="1" source="bmZF7T8KRYOrzVGl7_Tg-34" target="7H-r3v3xN0h7ExLqmK3x-18" edge="1">
          <mxGeometry width="50" height="50" relative="1" as="geometry">
            <mxPoint x="-440.41999999999996" y="980" as="sourcePoint" />
            <mxPoint x="-504" y="1360" as="targetPoint" />
            <Array as="points">
              <mxPoint x="-504" y="1040" />
              <mxPoint x="-494" y="1040" />
            </Array>
          </mxGeometry>
        </mxCell>
        <mxCell id="7H-r3v3xN0h7ExLqmK3x-14" value="sol:hasReceiveBehaviour" style="text;html=1;align=center;verticalAlign=middle;resizable=0;points=[];labelBackgroundColor=#ffffff;" parent="7H-r3v3xN0h7ExLqmK3x-13" vertex="1" connectable="0">
          <mxGeometry x="-0.1269" relative="1" as="geometry">
            <mxPoint x="14" y="5" as="offset" />
          </mxGeometry>
        </mxCell>
        <mxCell id="7H-r3v3xN0h7ExLqmK3x-15" value="" style="endArrow=classic;html=1;exitX=0.9;exitY=1;exitDx=0;exitDy=0;endSize=8;arcSize=0;rounded=0;entryX=0.2;entryY=0;entryDx=0;entryDy=0;" parent="1" source="bmZF7T8KRYOrzVGl7_Tg-34" target="7H-r3v3xN0h7ExLqmK3x-24" edge="1">
          <mxGeometry width="50" height="50" relative="1" as="geometry">
            <mxPoint x="-370" y="971" as="sourcePoint" />
            <mxPoint x="-376" y="1360" as="targetPoint" />
            <Array as="points">
              <mxPoint x="-376" y="1100" />
              <mxPoint x="-250" y="1100" />
            </Array>
          </mxGeometry>
        </mxCell>
        <mxCell id="7H-r3v3xN0h7ExLqmK3x-16" value="sol:hasReceiveVisibility" style="text;html=1;align=center;verticalAlign=middle;resizable=0;points=[];labelBackgroundColor=#ffffff;" parent="7H-r3v3xN0h7ExLqmK3x-15" vertex="1" connectable="0">
          <mxGeometry x="-0.1269" relative="1" as="geometry">
            <mxPoint x="56" y="15" as="offset" />
          </mxGeometry>
        </mxCell>
        <mxCell id="7H-r3v3xN0h7ExLqmK3x-18" value="sol:FRBehaviour" style="rounded=0;whiteSpace=wrap;html=1;snapToPoint=1;points=[[0.1,0],[0.2,0],[0.3,0],[0.4,0],[0.5,0],[0.6,0],[0.7,0],[0.8,0],[0.9,0],[0,0.1],[0,0.3],[0,0.5],[0,0.7],[0,0.9],[0.1,1],[0.2,1],[0.3,1],[0.4,1],[0.5,1],[0.6,1],[0.7,1],[0.8,1],[0.9,1],[1,0.1],[1,0.3],[1,0.5],[1,0.7],[1,0.9]];fillColor=#f8cecc;strokeColor=#b85450;" parent="1" vertex="1">
          <mxGeometry x="-574" y="1120" width="160" height="30" as="geometry" />
        </mxCell>
        <mxCell id="7H-r3v3xN0h7ExLqmK3x-24" value="sol:FRBehaviour" style="rounded=0;whiteSpace=wrap;html=1;snapToPoint=1;points=[[0.1,0],[0.2,0],[0.3,0],[0.4,0],[0.5,0],[0.6,0],[0.7,0],[0.8,0],[0.9,0],[0,0.1],[0,0.3],[0,0.5],[0,0.7],[0,0.9],[0.1,1],[0.2,1],[0.3,1],[0.4,1],[0.5,1],[0.6,1],[0.7,1],[0.8,1],[0.9,1],[1,0.1],[1,0.3],[1,0.5],[1,0.7],[1,0.9]];fillColor=#f8cecc;strokeColor=#b85450;" parent="1" vertex="1">
          <mxGeometry x="-282" y="1120" width="160" height="30" as="geometry" />
        </mxCell>
        <mxCell id="7H-r3v3xN0h7ExLqmK3x-26" value="" style="endArrow=classic;html=1;exitX=0.2;exitY=1;exitDx=0;exitDy=0;endSize=8;arcSize=0;rounded=0;entryX=0.9;entryY=0;entryDx=0;entryDy=0;" parent="1" source="bmZF7T8KRYOrzVGl7_Tg-36" target="7H-r3v3xN0h7ExLqmK3x-18" edge="1">
          <mxGeometry width="50" height="50" relative="1" as="geometry">
            <mxPoint x="-366" y="971" as="sourcePoint" />
            <mxPoint x="-238" y="1370" as="targetPoint" />
            <Array as="points">
              <mxPoint x="-250" y="1070" />
              <mxPoint x="-430" y="1070" />
              <mxPoint x="-430" y="1110" />
            </Array>
          </mxGeometry>
        </mxCell>
        <mxCell id="7H-r3v3xN0h7ExLqmK3x-27" value="sol:hasFallbackBehaviour" style="text;html=1;align=center;verticalAlign=middle;resizable=0;points=[];labelBackgroundColor=#ffffff;" parent="7H-r3v3xN0h7ExLqmK3x-26" vertex="1" connectable="0">
          <mxGeometry x="-0.1269" relative="1" as="geometry">
            <mxPoint x="9" as="offset" />
          </mxGeometry>
        </mxCell>
        <mxCell id="7H-r3v3xN0h7ExLqmK3x-29" value="" style="endArrow=classic;html=1;exitX=0.8;exitY=1;exitDx=0;exitDy=0;endSize=8;arcSize=0;rounded=0;entryX=0.8;entryY=0;entryDx=0;entryDy=0;" parent="1" source="bmZF7T8KRYOrzVGl7_Tg-36" target="7H-r3v3xN0h7ExLqmK3x-24" edge="1">
          <mxGeometry width="50" height="50" relative="1" as="geometry">
            <mxPoint x="-138" y="1010" as="sourcePoint" />
            <mxPoint x="-320" y="1409" as="targetPoint" />
            <Array as="points" />
          </mxGeometry>
        </mxCell>
        <mxCell id="7H-r3v3xN0h7ExLqmK3x-30" value="sol:hasFallbackVisibility" style="text;html=1;align=center;verticalAlign=middle;resizable=0;points=[];labelBackgroundColor=#ffffff;" parent="7H-r3v3xN0h7ExLqmK3x-29" vertex="1" connectable="0">
          <mxGeometry x="-0.1269" relative="1" as="geometry">
            <mxPoint x="-7" y="-21" as="offset" />
          </mxGeometry>
        </mxCell>
        <mxCell id="7H-r3v3xN0h7ExLqmK3x-31" value="sol:ContractAttributeSpecification" style="rounded=0;whiteSpace=wrap;html=1;snapToPoint=1;points=[[0.1,0],[0.2,0],[0.3,0],[0.4,0],[0.5,0],[0.6,0],[0.7,0],[0.8,0],[0.9,0],[0,0.1],[0,0.3],[0,0.5],[0,0.7],[0,0.9],[0.1,1],[0.2,1],[0.3,1],[0.4,1],[0.5,1],[0.6,1],[0.7,1],[0.8,1],[0.9,1],[1,0.1],[1,0.3],[1,0.5],[1,0.7],[1,0.9]];fillColor=#e1d5e7;strokeColor=#9673a6;" parent="1" vertex="1">
          <mxGeometry x="208" y="1520" width="206" height="30" as="geometry" />
        </mxCell>
        <mxCell id="7H-r3v3xN0h7ExLqmK3x-32" value="" style="endArrow=classic;html=1;exitX=0.8;exitY=1;exitDx=0;exitDy=0;endSize=8;arcSize=0;rounded=0;entryX=0.8;entryY=0;entryDx=0;entryDy=0;" parent="1" source="bmZF7T8KRYOrzVGl7_Tg-5" target="7H-r3v3xN0h7ExLqmK3x-31" edge="1">
          <mxGeometry width="50" height="50" relative="1" as="geometry">
            <mxPoint x="470" y="1190.5" as="sourcePoint" />
            <mxPoint x="528" y="698.5" as="targetPoint" />
            <Array as="points">
              <mxPoint x="452" y="1020" />
              <mxPoint x="373" y="1020" />
            </Array>
          </mxGeometry>
        </mxCell>
        <mxCell id="7H-r3v3xN0h7ExLqmK3x-33" value="sol:hasConstantAttribute" style="text;html=1;align=center;verticalAlign=middle;resizable=0;points=[];labelBackgroundColor=#ffffff;rotation=0;" parent="7H-r3v3xN0h7ExLqmK3x-32" vertex="1" connectable="0">
          <mxGeometry x="-0.1269" relative="1" as="geometry">
            <mxPoint x="-38" y="92" as="offset" />
          </mxGeometry>
        </mxCell>
        <mxCell id="7H-r3v3xN0h7ExLqmK3x-34" value="sol:NonConstantAttributeSpecification" style="rounded=0;whiteSpace=wrap;html=1;snapToPoint=1;points=[[0.1,0],[0.2,0],[0.3,0],[0.4,0],[0.5,0],[0.6,0],[0.7,0],[0.8,0],[0.9,0],[0,0.1],[0,0.3],[0,0.5],[0,0.7],[0,0.9],[0.1,1],[0.2,1],[0.3,1],[0.4,1],[0.5,1],[0.6,1],[0.7,1],[0.8,1],[0.9,1],[1,0.1],[1,0.3],[1,0.5],[1,0.7],[1,0.9]];fillColor=#e1d5e7;strokeColor=#9673a6;" parent="1" vertex="1">
          <mxGeometry x="-48" y="1520" width="218" height="30" as="geometry" />
        </mxCell>
        <mxCell id="7H-r3v3xN0h7ExLqmK3x-35" value="" style="endArrow=block;html=1;fontColor=#000099;exitX=0.5;exitY=0;exitDx=0;exitDy=0;endFill=0;entryX=0.5;entryY=1;entryDx=0;entryDy=0;endSize=8;arcSize=0;rounded=0;" parent="1" source="7H-r3v3xN0h7ExLqmK3x-34" target="bmZF7T8KRYOrzVGl7_Tg-55" edge="1">
          <mxGeometry width="50" height="50" relative="1" as="geometry">
            <mxPoint x="90" y="1180" as="sourcePoint" />
            <mxPoint x="186" y="1129" as="targetPoint" />
            <Array as="points">
              <mxPoint x="60" y="1170" />
              <mxPoint x="40" y="1170" />
            </Array>
          </mxGeometry>
        </mxCell>
        <mxCell id="7H-r3v3xN0h7ExLqmK3x-36" value="" style="endArrow=block;html=1;fontColor=#000099;exitX=0.2;exitY=0;exitDx=0;exitDy=0;endFill=0;entryX=0.5;entryY=1;entryDx=0;entryDy=0;endSize=8;arcSize=0;rounded=0;" parent="1" source="7H-r3v3xN0h7ExLqmK3x-31" target="bmZF7T8KRYOrzVGl7_Tg-55" edge="1">
          <mxGeometry width="50" height="50" relative="1" as="geometry">
            <mxPoint x="70" y="1530" as="sourcePoint" />
            <mxPoint x="50" y="970" as="targetPoint" />
            <Array as="points">
              <mxPoint x="249" y="1170" />
              <mxPoint x="40" y="1170" />
            </Array>
          </mxGeometry>
        </mxCell>
        <mxCell id="7H-r3v3xN0h7ExLqmK3x-37" value="sol:Visibility" style="rounded=0;whiteSpace=wrap;html=1;snapToPoint=1;points=[[0.1,0],[0.2,0],[0.3,0],[0.4,0],[0.5,0],[0.6,0],[0.7,0],[0.8,0],[0.9,0],[0,0.1],[0,0.3],[0,0.5],[0,0.7],[0,0.9],[0.1,1],[0.2,1],[0.3,1],[0.4,1],[0.5,1],[0.6,1],[0.7,1],[0.8,1],[0.9,1],[1,0.1],[1,0.3],[1,0.5],[1,0.7],[1,0.9]];fillColor=#f8cecc;strokeColor=#b85450;" parent="1" vertex="1">
          <mxGeometry x="-390" y="1521" width="160" height="30" as="geometry" />
        </mxCell>
        <mxCell id="7H-r3v3xN0h7ExLqmK3x-39" value="" style="endArrow=classic;html=1;exitX=0;exitY=0.5;exitDx=0;exitDy=0;endSize=8;arcSize=0;rounded=0;entryX=1;entryY=0.5;entryDx=0;entryDy=0;" parent="1" source="7H-r3v3xN0h7ExLqmK3x-34" target="7H-r3v3xN0h7ExLqmK3x-37" edge="1">
          <mxGeometry width="50" height="50" relative="1" as="geometry">
            <mxPoint x="-150" y="1480" as="sourcePoint" />
            <mxPoint x="-150" y="1639" as="targetPoint" />
            <Array as="points" />
          </mxGeometry>
        </mxCell>
        <mxCell id="7H-r3v3xN0h7ExLqmK3x-40" value="sol:hasAttributeVisibility" style="text;html=1;align=center;verticalAlign=middle;resizable=0;points=[];labelBackgroundColor=#ffffff;" parent="7H-r3v3xN0h7ExLqmK3x-39" vertex="1" connectable="0">
          <mxGeometry x="-0.1269" relative="1" as="geometry">
            <mxPoint x="-7" as="offset" />
          </mxGeometry>
        </mxCell>
        <mxCell id="7H-r3v3xN0h7ExLqmK3x-41" value="" style="endArrow=classic;html=1;exitX=0.5;exitY=1;exitDx=0;exitDy=0;endSize=8;arcSize=0;rounded=0;entryX=0.5;entryY=0;entryDx=0;entryDy=0;" parent="1" source="NvWkWuXcyiQm78Mj__-v-108" target="7H-r3v3xN0h7ExLqmK3x-46" edge="1">
          <mxGeometry width="50" height="50" relative="1" as="geometry">
            <mxPoint x="52" y="1681" as="sourcePoint" />
            <mxPoint x="60" y="1740" as="targetPoint" />
            <Array as="points">
              <mxPoint x="61" y="1670" />
              <mxPoint x="80" y="1670" />
            </Array>
          </mxGeometry>
        </mxCell>
        <mxCell id="7H-r3v3xN0h7ExLqmK3x-42" value="sol:hasNonConstantType" style="text;html=1;align=center;verticalAlign=middle;resizable=0;points=[];labelBackgroundColor=#ffffff;" parent="7H-r3v3xN0h7ExLqmK3x-41" vertex="1" connectable="0">
          <mxGeometry x="-0.1269" relative="1" as="geometry">
            <mxPoint x="-7" as="offset" />
          </mxGeometry>
        </mxCell>
        <mxCell id="7H-r3v3xN0h7ExLqmK3x-43" value="" style="endArrow=classic;html=1;exitX=0.8;exitY=1;exitDx=0;exitDy=0;endSize=8;arcSize=0;rounded=0;" parent="1" source="7H-r3v3xN0h7ExLqmK3x-31" target="7H-r3v3xN0h7ExLqmK3x-45" edge="1">
          <mxGeometry width="50" height="50" relative="1" as="geometry">
            <mxPoint x="310.40999999999997" y="1580" as="sourcePoint" />
            <mxPoint x="311" y="1740" as="targetPoint" />
            <Array as="points" />
          </mxGeometry>
        </mxCell>
        <mxCell id="7H-r3v3xN0h7ExLqmK3x-44" value="sol:hasConstantType" style="text;html=1;align=center;verticalAlign=middle;resizable=0;points=[];labelBackgroundColor=#ffffff;" parent="7H-r3v3xN0h7ExLqmK3x-43" vertex="1" connectable="0">
          <mxGeometry x="-0.1269" relative="1" as="geometry">
            <mxPoint x="-7" as="offset" />
          </mxGeometry>
        </mxCell>
        <mxCell id="7H-r3v3xN0h7ExLqmK3x-45" value="sol:ConstantType" style="rounded=0;whiteSpace=wrap;html=1;snapToPoint=1;points=[[0.1,0],[0.2,0],[0.3,0],[0.4,0],[0.5,0],[0.6,0],[0.7,0],[0.8,0],[0.9,0],[0,0.1],[0,0.3],[0,0.5],[0,0.7],[0,0.9],[0.1,1],[0.2,1],[0.3,1],[0.4,1],[0.5,1],[0.6,1],[0.7,1],[0.8,1],[0.9,1],[1,0.1],[1,0.3],[1,0.5],[1,0.7],[1,0.9]];fillColor=#d5e8d4;strokeColor=#82b366;" parent="1" vertex="1">
          <mxGeometry x="293" y="1760" width="160" height="30" as="geometry" />
        </mxCell>
        <mxCell id="7H-r3v3xN0h7ExLqmK3x-46" value="sol:NonConstantType" style="rounded=0;whiteSpace=wrap;html=1;snapToPoint=1;points=[[0.1,0],[0.2,0],[0.3,0],[0.4,0],[0.5,0],[0.6,0],[0.7,0],[0.8,0],[0.9,0],[0,0.1],[0,0.3],[0,0.5],[0,0.7],[0,0.9],[0.1,1],[0.2,1],[0.3,1],[0.4,1],[0.5,1],[0.6,1],[0.7,1],[0.8,1],[0.9,1],[1,0.1],[1,0.3],[1,0.5],[1,0.7],[1,0.9]];fillColor=#d5e8d4;strokeColor=#82b366;" parent="1" vertex="1">
          <mxGeometry y="1760" width="160" height="30" as="geometry" />
        </mxCell>
        <mxCell id="7H-r3v3xN0h7ExLqmK3x-49" value="" style="endArrow=block;html=1;fontColor=#000099;endFill=0;endSize=8;arcSize=0;rounded=0;entryX=0.9;entryY=1;entryDx=0;entryDy=0;exitX=0.5;exitY=0;exitDx=0;exitDy=0;" parent="1" source="bmZF7T8KRYOrzVGl7_Tg-12" target="7H-r3v3xN0h7ExLqmK3x-45" edge="1">
          <mxGeometry width="50" height="50" relative="1" as="geometry">
            <mxPoint x="507" y="2000" as="sourcePoint" />
            <mxPoint x="298" y="1900" as="targetPoint" />
            <Array as="points">
              <mxPoint x="536" y="1830" />
              <mxPoint x="437" y="1830" />
            </Array>
          </mxGeometry>
        </mxCell>
        <mxCell id="7H-r3v3xN0h7ExLqmK3x-52" value="" style="endArrow=classic;html=1;exitX=0;exitY=0.5;exitDx=0;exitDy=0;endSize=8;arcSize=0;rounded=0;entryX=0.8;entryY=1;entryDx=0;entryDy=0;" parent="1" source="bmZF7T8KRYOrzVGl7_Tg-12" target="NvWkWuXcyiQm78Mj__-v-108" edge="1">
          <mxGeometry width="50" height="50" relative="1" as="geometry">
            <mxPoint x="165" y="1753" as="sourcePoint" />
            <mxPoint x="165" y="1963" as="targetPoint" />
            <Array as="points">
              <mxPoint x="220" y="1885" />
              <mxPoint x="220" y="1600" />
              <mxPoint x="126" y="1600" />
            </Array>
          </mxGeometry>
        </mxCell>
        <mxCell id="7H-r3v3xN0h7ExLqmK3x-53" value="sol:hasNonConstantStructAttribute" style="text;html=1;align=center;verticalAlign=middle;resizable=0;points=[];labelBackgroundColor=#ffffff;" parent="7H-r3v3xN0h7ExLqmK3x-52" vertex="1" connectable="0">
          <mxGeometry x="-0.1269" relative="1" as="geometry">
            <mxPoint x="60" y="48" as="offset" />
          </mxGeometry>
        </mxCell>
        <mxCell id="7H-r3v3xN0h7ExLqmK3x-54" value="" style="endArrow=block;html=1;fontColor=#000099;endFill=0;endSize=8;arcSize=0;rounded=0;entryX=0.1;entryY=1;entryDx=0;entryDy=0;exitX=0.5;exitY=0;exitDx=0;exitDy=0;" parent="1" source="7H-r3v3xN0h7ExLqmK3x-55" target="NvWkWuXcyiQm78Mj__-v-108" edge="1">
          <mxGeometry width="50" height="50" relative="1" as="geometry">
            <mxPoint x="-190" y="1990" as="sourcePoint" />
            <mxPoint x="-151" y="1810" as="targetPoint" />
            <Array as="points">
              <mxPoint x="-677" y="1830" />
              <mxPoint x="-27" y="1830" />
            </Array>
          </mxGeometry>
        </mxCell>
        <mxCell id="7H-r3v3xN0h7ExLqmK3x-55" value="sol:ArrayAttributeSpecification" style="rounded=0;whiteSpace=wrap;html=1;snapToPoint=1;points=[[0.1,0],[0.2,0],[0.3,0],[0.4,0],[0.5,0],[0.6,0],[0.7,0],[0.8,0],[0.9,0],[0,0.1],[0,0.3],[0,0.5],[0,0.7],[0,0.9],[0.1,1],[0.2,1],[0.3,1],[0.4,1],[0.5,1],[0.6,1],[0.7,1],[0.8,1],[0.9,1],[1,0.1],[1,0.3],[1,0.5],[1,0.7],[1,0.9]];fillColor=#e1d5e7;strokeColor=#9673a6;" parent="1" vertex="1">
          <mxGeometry x="-772" y="1970" width="190" height="30" as="geometry" />
        </mxCell>
        <mxCell id="7H-r3v3xN0h7ExLqmK3x-56" value="sol:MapAttributeSpecification" style="rounded=0;whiteSpace=wrap;html=1;snapToPoint=1;points=[[0.1,0],[0.2,0],[0.3,0],[0.4,0],[0.5,0],[0.6,0],[0.7,0],[0.8,0],[0.9,0],[0,0.1],[0,0.3],[0,0.5],[0,0.7],[0,0.9],[0.1,1],[0.2,1],[0.3,1],[0.4,1],[0.5,1],[0.6,1],[0.7,1],[0.8,1],[0.9,1],[1,0.1],[1,0.3],[1,0.5],[1,0.7],[1,0.9]];fillColor=#e1d5e7;strokeColor=#9673a6;" parent="1" vertex="1">
          <mxGeometry x="-560" y="1970" width="190" height="30" as="geometry" />
        </mxCell>
        <mxCell id="7H-r3v3xN0h7ExLqmK3x-57" value="" style="endArrow=block;html=1;fontColor=#000099;endFill=0;endSize=8;arcSize=0;rounded=0;entryX=0.1;entryY=1;entryDx=0;entryDy=0;exitX=0.5;exitY=0;exitDx=0;exitDy=0;" parent="1" source="7H-r3v3xN0h7ExLqmK3x-56" target="NvWkWuXcyiQm78Mj__-v-108" edge="1">
          <mxGeometry width="50" height="50" relative="1" as="geometry">
            <mxPoint x="-177" y="1980" as="sourcePoint" />
            <mxPoint x="-17" y="1560" as="targetPoint" />
            <Array as="points">
              <mxPoint x="-465" y="1830" />
              <mxPoint x="-27" y="1830" />
            </Array>
          </mxGeometry>
        </mxCell>
        <mxCell id="7H-r3v3xN0h7ExLqmK3x-58" value="sol:ArrayType" style="rounded=0;whiteSpace=wrap;html=1;snapToPoint=1;points=[[0.1,0],[0.2,0],[0.3,0],[0.4,0],[0.5,0],[0.6,0],[0.7,0],[0.8,0],[0.9,0],[0,0.1],[0,0.3],[0,0.5],[0,0.7],[0,0.9],[0.1,1],[0.2,1],[0.3,1],[0.4,1],[0.5,1],[0.6,1],[0.7,1],[0.8,1],[0.9,1],[1,0.1],[1,0.3],[1,0.5],[1,0.7],[1,0.9]];fillColor=#d5e8d4;strokeColor=#82b366;" parent="1" vertex="1">
          <mxGeometry x="-921" y="2338" width="165" height="30" as="geometry" />
        </mxCell>
        <mxCell id="7H-r3v3xN0h7ExLqmK3x-59" value="sol:MapType" style="rounded=0;whiteSpace=wrap;html=1;snapToPoint=1;points=[[0.1,0],[0.2,0],[0.3,0],[0.4,0],[0.5,0],[0.6,0],[0.7,0],[0.8,0],[0.9,0],[0,0.1],[0,0.3],[0,0.5],[0,0.7],[0,0.9],[0.1,1],[0.2,1],[0.3,1],[0.4,1],[0.5,1],[0.6,1],[0.7,1],[0.8,1],[0.9,1],[1,0.1],[1,0.3],[1,0.5],[1,0.7],[1,0.9]];fillColor=#d5e8d4;strokeColor=#82b366;" parent="1" vertex="1">
          <mxGeometry x="-547.5" y="2110" width="165" height="30" as="geometry" />
        </mxCell>
        <mxCell id="7H-r3v3xN0h7ExLqmK3x-60" value="sol:Type" style="rounded=0;whiteSpace=wrap;html=1;snapToPoint=1;points=[[0.1,0],[0.2,0],[0.3,0],[0.4,0],[0.5,0],[0.6,0],[0.7,0],[0.8,0],[0.9,0],[0,0.1],[0,0.3],[0,0.5],[0,0.7],[0,0.9],[0.1,1],[0.2,1],[0.3,1],[0.4,1],[0.5,1],[0.6,1],[0.7,1],[0.8,1],[0.9,1],[1,0.1],[1,0.3],[1,0.5],[1,0.7],[1,0.9]];fillColor=#d5e8d4;strokeColor=#82b366;" parent="1" vertex="1">
          <mxGeometry x="-584" y="2220" width="138.5" height="30" as="geometry" />
        </mxCell>
        <mxCell id="7H-r3v3xN0h7ExLqmK3x-61" value="sol:MapKeyType" style="rounded=0;whiteSpace=wrap;html=1;snapToPoint=1;points=[[0.1,0],[0.2,0],[0.3,0],[0.4,0],[0.5,0],[0.6,0],[0.7,0],[0.8,0],[0.9,0],[0,0.1],[0,0.3],[0,0.5],[0,0.7],[0,0.9],[0.1,1],[0.2,1],[0.3,1],[0.4,1],[0.5,1],[0.6,1],[0.7,1],[0.8,1],[0.9,1],[1,0.1],[1,0.3],[1,0.5],[1,0.7],[1,0.9]];fillColor=#d5e8d4;strokeColor=#82b366;" parent="1" vertex="1">
          <mxGeometry x="-382.5" y="2220" width="165" height="30" as="geometry" />
        </mxCell>
        <mxCell id="7H-r3v3xN0h7ExLqmK3x-62" value="" style="endArrow=classic;html=1;exitX=0.5;exitY=1;exitDx=0;exitDy=0;endSize=8;arcSize=0;rounded=0;entryX=0.5;entryY=0;entryDx=0;entryDy=0;" parent="1" source="7H-r3v3xN0h7ExLqmK3x-55" target="7H-r3v3xN0h7ExLqmK3x-58" edge="1">
          <mxGeometry width="50" height="50" relative="1" as="geometry">
            <mxPoint x="-730" y="2160" as="sourcePoint" />
            <mxPoint x="-730" y="2370" as="targetPoint" />
            <Array as="points">
              <mxPoint x="-677" y="2110" />
              <mxPoint x="-838" y="2110" />
            </Array>
          </mxGeometry>
        </mxCell>
        <mxCell id="7H-r3v3xN0h7ExLqmK3x-63" value="sol:hasNonConstantArrayType" style="text;html=1;align=center;verticalAlign=middle;resizable=0;points=[];labelBackgroundColor=#ffffff;" parent="7H-r3v3xN0h7ExLqmK3x-62" vertex="1" connectable="0">
          <mxGeometry x="-0.1269" relative="1" as="geometry">
            <mxPoint x="-7" as="offset" />
          </mxGeometry>
        </mxCell>
        <mxCell id="7H-r3v3xN0h7ExLqmK3x-64" value="" style="endArrow=classic;html=1;exitX=0.5;exitY=1;exitDx=0;exitDy=0;endSize=8;arcSize=0;rounded=0;entryX=0.5;entryY=0;entryDx=0;entryDy=0;" parent="1" source="7H-r3v3xN0h7ExLqmK3x-56" target="7H-r3v3xN0h7ExLqmK3x-59" edge="1">
          <mxGeometry width="50" height="50" relative="1" as="geometry">
            <mxPoint x="-450" y="2020" as="sourcePoint" />
            <mxPoint x="-450.53" y="2190" as="targetPoint" />
            <Array as="points" />
          </mxGeometry>
        </mxCell>
        <mxCell id="7H-r3v3xN0h7ExLqmK3x-65" value="sol:hasNonConstantMapType" style="text;html=1;align=center;verticalAlign=middle;resizable=0;points=[];labelBackgroundColor=#ffffff;" parent="7H-r3v3xN0h7ExLqmK3x-64" vertex="1" connectable="0">
          <mxGeometry x="-0.1269" relative="1" as="geometry">
            <mxPoint x="-7" as="offset" />
          </mxGeometry>
        </mxCell>
        <mxCell id="7H-r3v3xN0h7ExLqmK3x-67" value="" style="endArrow=classic;html=1;exitX=0.2;exitY=1;exitDx=0;exitDy=0;endSize=8;arcSize=0;rounded=0;entryX=0.5;entryY=0;entryDx=0;entryDy=0;" parent="1" source="7H-r3v3xN0h7ExLqmK3x-59" target="7H-r3v3xN0h7ExLqmK3x-60" edge="1">
          <mxGeometry width="50" height="50" relative="1" as="geometry">
            <mxPoint x="-455" y="2010" as="sourcePoint" />
            <mxPoint x="-455" y="2120" as="targetPoint" />
            <Array as="points" />
          </mxGeometry>
        </mxCell>
        <mxCell id="7H-r3v3xN0h7ExLqmK3x-68" value="sol:hasValueMap" style="text;html=1;align=center;verticalAlign=middle;resizable=0;points=[];labelBackgroundColor=#ffffff;" parent="7H-r3v3xN0h7ExLqmK3x-67" vertex="1" connectable="0">
          <mxGeometry x="-0.1269" relative="1" as="geometry">
            <mxPoint x="-7" as="offset" />
          </mxGeometry>
        </mxCell>
        <mxCell id="7H-r3v3xN0h7ExLqmK3x-69" value="" style="endArrow=classic;html=1;exitX=0.8;exitY=1;exitDx=0;exitDy=0;endSize=8;arcSize=0;rounded=0;entryX=0.5;entryY=0;entryDx=0;entryDy=0;" parent="1" source="7H-r3v3xN0h7ExLqmK3x-59" target="7H-r3v3xN0h7ExLqmK3x-61" edge="1">
          <mxGeometry width="50" height="50" relative="1" as="geometry">
            <mxPoint x="-445" y="2020" as="sourcePoint" />
            <mxPoint x="-445" y="2130" as="targetPoint" />
            <Array as="points">
              <mxPoint x="-415" y="2170" />
              <mxPoint x="-300" y="2170" />
            </Array>
          </mxGeometry>
        </mxCell>
        <mxCell id="7H-r3v3xN0h7ExLqmK3x-70" value="sol:hasKeyMap" style="text;html=1;align=center;verticalAlign=middle;resizable=0;points=[];labelBackgroundColor=#ffffff;" parent="7H-r3v3xN0h7ExLqmK3x-69" vertex="1" connectable="0">
          <mxGeometry x="-0.1269" relative="1" as="geometry">
            <mxPoint x="-7" as="offset" />
          </mxGeometry>
        </mxCell>
        <mxCell id="7H-r3v3xN0h7ExLqmK3x-71" value="sol:ParameterVariableSpecification" style="rounded=0;whiteSpace=wrap;html=1;snapToPoint=1;points=[[0.1,0],[0.2,0],[0.3,0],[0.4,0],[0.5,0],[0.6,0],[0.7,0],[0.8,0],[0.9,0],[0,0.1],[0,0.3],[0,0.5],[0,0.7],[0,0.9],[0.1,1],[0.2,1],[0.3,1],[0.4,1],[0.5,1],[0.6,1],[0.7,1],[0.8,1],[0.9,1],[1,0.1],[1,0.3],[1,0.5],[1,0.7],[1,0.9]];fillColor=#e1d5e7;strokeColor=#9673a6;" parent="1" vertex="1">
          <mxGeometry x="890" y="1366" width="210" height="30" as="geometry" />
        </mxCell>
        <mxCell id="7H-r3v3xN0h7ExLqmK3x-72" value="sol:hasParameterPosition: short&lt;br&gt;sol:hasParameterName: string" style="rounded=0;whiteSpace=wrap;html=1;snapToPoint=1;points=[[0.1,0],[0.2,0],[0.3,0],[0.4,0],[0.5,0],[0.6,0],[0.7,0],[0.8,0],[0.9,0],[0,0.1],[0,0.3],[0,0.5],[0,0.7],[0,0.9],[0.1,1],[0.2,1],[0.3,1],[0.4,1],[0.5,1],[0.6,1],[0.7,1],[0.8,1],[0.9,1],[1,0.1],[1,0.3],[1,0.5],[1,0.7],[1,0.9]];" parent="1" vertex="1">
          <mxGeometry x="890" y="1396" width="210" height="40" as="geometry" />
        </mxCell>
        <mxCell id="NvWkWuXcyiQm78Mj__-v-1" value="" style="endArrow=classic;html=1;exitX=0.8;exitY=0;exitDx=0;exitDy=0;endSize=8;arcSize=0;rounded=0;entryX=0;entryY=0.5;entryDx=0;entryDy=0;" parent="1" source="7H-r3v3xN0h7ExLqmK3x-58" target="7H-r3v3xN0h7ExLqmK3x-60" edge="1">
          <mxGeometry width="50" height="50" relative="1" as="geometry">
            <mxPoint x="-599" y="2380" as="sourcePoint" />
            <mxPoint x="-760" y="2718" as="targetPoint" />
            <Array as="points">
              <mxPoint x="-789" y="2235" />
            </Array>
          </mxGeometry>
        </mxCell>
        <mxCell id="NvWkWuXcyiQm78Mj__-v-2" value="sol:hasType" style="text;html=1;align=center;verticalAlign=middle;resizable=0;points=[];labelBackgroundColor=#ffffff;" parent="NvWkWuXcyiQm78Mj__-v-1" vertex="1" connectable="0">
          <mxGeometry x="-0.1269" relative="1" as="geometry">
            <mxPoint x="33" as="offset" />
          </mxGeometry>
        </mxCell>
        <mxCell id="NvWkWuXcyiQm78Mj__-v-3" value="sol:ArrayDimension" style="rounded=0;whiteSpace=wrap;html=1;snapToPoint=1;points=[[0.1,0],[0.2,0],[0.3,0],[0.4,0],[0.5,0],[0.6,0],[0.7,0],[0.8,0],[0.9,0],[0,0.1],[0,0.3],[0,0.5],[0,0.7],[0,0.9],[0.1,1],[0.2,1],[0.3,1],[0.4,1],[0.5,1],[0.6,1],[0.7,1],[0.8,1],[0.9,1],[1,0.1],[1,0.3],[1,0.5],[1,0.7],[1,0.9]];" parent="1" vertex="1">
          <mxGeometry x="-1160" y="2425" width="160" height="30" as="geometry" />
        </mxCell>
        <mxCell id="NvWkWuXcyiQm78Mj__-v-4" value="sol:index: short&lt;br&gt;sol:lenght: short" style="rounded=0;whiteSpace=wrap;html=1;snapToPoint=1;points=[[0.1,0],[0.2,0],[0.3,0],[0.4,0],[0.5,0],[0.6,0],[0.7,0],[0.8,0],[0.9,0],[0,0.1],[0,0.3],[0,0.5],[0,0.7],[0,0.9],[0.1,1],[0.2,1],[0.3,1],[0.4,1],[0.5,1],[0.6,1],[0.7,1],[0.8,1],[0.9,1],[1,0.1],[1,0.3],[1,0.5],[1,0.7],[1,0.9]];" parent="1" vertex="1">
          <mxGeometry x="-1160" y="2455" width="160" height="40" as="geometry" />
        </mxCell>
        <mxCell id="NvWkWuXcyiQm78Mj__-v-5" value="" style="endArrow=classic;html=1;exitX=0;exitY=0.5;exitDx=0;exitDy=0;endSize=8;arcSize=0;rounded=0;" parent="1" source="7H-r3v3xN0h7ExLqmK3x-58" target="NvWkWuXcyiQm78Mj__-v-3" edge="1">
          <mxGeometry width="50" height="50" relative="1" as="geometry">
            <mxPoint x="-1180" y="2383" as="sourcePoint" />
            <mxPoint x="-987" y="2280" as="targetPoint" />
            <Array as="points">
              <mxPoint x="-1080" y="2353" />
            </Array>
          </mxGeometry>
        </mxCell>
        <mxCell id="NvWkWuXcyiQm78Mj__-v-6" value="sol:hasArrayDimension" style="text;html=1;align=center;verticalAlign=middle;resizable=0;points=[];labelBackgroundColor=#ffffff;" parent="NvWkWuXcyiQm78Mj__-v-5" vertex="1" connectable="0">
          <mxGeometry x="-0.1269" relative="1" as="geometry">
            <mxPoint x="22" as="offset" />
          </mxGeometry>
        </mxCell>
        <mxCell id="NvWkWuXcyiQm78Mj__-v-7" value="sol:SingleMemoryType" style="rounded=0;whiteSpace=wrap;html=1;snapToPoint=1;points=[[0.1,0],[0.2,0],[0.3,0],[0.4,0],[0.5,0],[0.6,0],[0.7,0],[0.8,0],[0.9,0],[0,0.1],[0,0.3],[0,0.5],[0,0.7],[0,0.9],[0.1,1],[0.2,1],[0.3,1],[0.4,1],[0.5,1],[0.6,1],[0.7,1],[0.8,1],[0.9,1],[1,0.1],[1,0.3],[1,0.5],[1,0.7],[1,0.9]];fillColor=#d5e8d4;strokeColor=#82b366;" parent="1" vertex="1">
          <mxGeometry x="-840" y="2578" width="160" height="30" as="geometry" />
        </mxCell>
        <mxCell id="NvWkWuXcyiQm78Mj__-v-8" value="sol:memory: short" style="rounded=0;whiteSpace=wrap;html=1;snapToPoint=1;points=[[0.1,0],[0.2,0],[0.3,0],[0.4,0],[0.5,0],[0.6,0],[0.7,0],[0.8,0],[0.9,0],[0,0.1],[0,0.3],[0,0.5],[0,0.7],[0,0.9],[0.1,1],[0.2,1],[0.3,1],[0.4,1],[0.5,1],[0.6,1],[0.7,1],[0.8,1],[0.9,1],[1,0.1],[1,0.3],[1,0.5],[1,0.7],[1,0.9]];" parent="1" vertex="1">
          <mxGeometry x="-840" y="2608" width="160" height="30" as="geometry" />
        </mxCell>
        <mxCell id="NvWkWuXcyiQm78Mj__-v-9" value="sol:DualMemoryType" style="rounded=0;whiteSpace=wrap;html=1;snapToPoint=1;points=[[0.1,0],[0.2,0],[0.3,0],[0.4,0],[0.5,0],[0.6,0],[0.7,0],[0.8,0],[0.9,0],[0,0.1],[0,0.3],[0,0.5],[0,0.7],[0,0.9],[0.1,1],[0.2,1],[0.3,1],[0.4,1],[0.5,1],[0.6,1],[0.7,1],[0.8,1],[0.9,1],[1,0.1],[1,0.3],[1,0.5],[1,0.7],[1,0.9]];fillColor=#d5e8d4;strokeColor=#82b366;" parent="1" vertex="1">
          <mxGeometry x="-560" y="2577" width="160" height="30" as="geometry" />
        </mxCell>
        <mxCell id="NvWkWuXcyiQm78Mj__-v-10" value="sol:memoryN: short&lt;br&gt;sol:memoryM: short" style="rounded=0;whiteSpace=wrap;html=1;snapToPoint=1;points=[[0.1,0],[0.2,0],[0.3,0],[0.4,0],[0.5,0],[0.6,0],[0.7,0],[0.8,0],[0.9,0],[0,0.1],[0,0.3],[0,0.5],[0,0.7],[0,0.9],[0.1,1],[0.2,1],[0.3,1],[0.4,1],[0.5,1],[0.6,1],[0.7,1],[0.8,1],[0.9,1],[1,0.1],[1,0.3],[1,0.5],[1,0.7],[1,0.9]];" parent="1" vertex="1">
          <mxGeometry x="-560" y="2607" width="160" height="40" as="geometry" />
        </mxCell>
        <mxCell id="NvWkWuXcyiQm78Mj__-v-11" value="sol:EnumType" style="rounded=0;whiteSpace=wrap;html=1;snapToPoint=1;points=[[0.1,0],[0.2,0],[0.3,0],[0.4,0],[0.5,0],[0.6,0],[0.7,0],[0.8,0],[0.9,0],[0,0.1],[0,0.3],[0,0.5],[0,0.7],[0,0.9],[0.1,1],[0.2,1],[0.3,1],[0.4,1],[0.5,1],[0.6,1],[0.7,1],[0.8,1],[0.9,1],[1,0.1],[1,0.3],[1,0.5],[1,0.7],[1,0.9]];fillColor=#d5e8d4;strokeColor=#82b366;" parent="1" vertex="1">
          <mxGeometry x="-100" y="2445" width="160" height="30" as="geometry" />
        </mxCell>
        <mxCell id="NvWkWuXcyiQm78Mj__-v-12" value="sol:option: string" style="rounded=0;whiteSpace=wrap;html=1;snapToPoint=1;points=[[0.1,0],[0.2,0],[0.3,0],[0.4,0],[0.5,0],[0.6,0],[0.7,0],[0.8,0],[0.9,0],[0,0.1],[0,0.3],[0,0.5],[0,0.7],[0,0.9],[0.1,1],[0.2,1],[0.3,1],[0.4,1],[0.5,1],[0.6,1],[0.7,1],[0.8,1],[0.9,1],[1,0.1],[1,0.3],[1,0.5],[1,0.7],[1,0.9]];" parent="1" vertex="1">
          <mxGeometry x="-100" y="2475" width="160" height="30" as="geometry" />
        </mxCell>
        <mxCell id="NvWkWuXcyiQm78Mj__-v-13" value="sol:ElementaryType" style="rounded=0;whiteSpace=wrap;html=1;snapToPoint=1;points=[[0.1,0],[0.2,0],[0.3,0],[0.4,0],[0.5,0],[0.6,0],[0.7,0],[0.8,0],[0.9,0],[0,0.1],[0,0.3],[0,0.5],[0,0.7],[0,0.9],[0.1,1],[0.2,1],[0.3,1],[0.4,1],[0.5,1],[0.6,1],[0.7,1],[0.8,1],[0.9,1],[1,0.1],[1,0.3],[1,0.5],[1,0.7],[1,0.9]];fillColor=#d5e8d4;strokeColor=#82b366;" parent="1" vertex="1">
          <mxGeometry x="-310" y="2512" width="160" height="30" as="geometry" />
        </mxCell>
        <mxCell id="NvWkWuXcyiQm78Mj__-v-15" value="sol:MemoryType" style="rounded=0;whiteSpace=wrap;html=1;snapToPoint=1;points=[[0.1,0],[0.2,0],[0.3,0],[0.4,0],[0.5,0],[0.6,0],[0.7,0],[0.8,0],[0.9,0],[0,0.1],[0,0.3],[0,0.5],[0,0.7],[0,0.9],[0.1,1],[0.2,1],[0.3,1],[0.4,1],[0.5,1],[0.6,1],[0.7,1],[0.8,1],[0.9,1],[1,0.1],[1,0.3],[1,0.5],[1,0.7],[1,0.9]];fillColor=#d5e8d4;strokeColor=#82b366;" parent="1" vertex="1">
          <mxGeometry x="-690" y="2489" width="165" height="30" as="geometry" />
        </mxCell>
        <mxCell id="NvWkWuXcyiQm78Mj__-v-16" value="" style="endArrow=block;html=1;fontColor=#000099;endFill=0;endSize=8;arcSize=0;rounded=0;exitX=0;exitY=0.5;exitDx=0;exitDy=0;entryX=1;entryY=0.5;entryDx=0;entryDy=0;" parent="1" source="7H-r3v3xN0h7ExLqmK3x-61" target="7H-r3v3xN0h7ExLqmK3x-60" edge="1">
          <mxGeometry width="50" height="50" relative="1" as="geometry">
            <mxPoint x="-290" y="2160" as="sourcePoint" />
            <mxPoint x="150" y="1980" as="targetPoint" />
            <Array as="points" />
          </mxGeometry>
        </mxCell>
        <mxCell id="NvWkWuXcyiQm78Mj__-v-17" value="sol:Int" style="rounded=0;whiteSpace=wrap;html=1;snapToPoint=1;points=[[0.1,0],[0.2,0],[0.3,0],[0.4,0],[0.5,0],[0.6,0],[0.7,0],[0.8,0],[0.9,0],[0,0.1],[0,0.3],[0,0.5],[0,0.7],[0,0.9],[0.1,1],[0.2,1],[0.3,1],[0.4,1],[0.5,1],[0.6,1],[0.7,1],[0.8,1],[0.9,1],[1,0.1],[1,0.3],[1,0.5],[1,0.7],[1,0.9]];" parent="1" vertex="1">
          <mxGeometry x="-897" y="2712" width="70" height="30" as="geometry" />
        </mxCell>
        <mxCell id="NvWkWuXcyiQm78Mj__-v-18" value="sol:Bytes" style="rounded=0;whiteSpace=wrap;html=1;snapToPoint=1;points=[[0.1,0],[0.2,0],[0.3,0],[0.4,0],[0.5,0],[0.6,0],[0.7,0],[0.8,0],[0.9,0],[0,0.1],[0,0.3],[0,0.5],[0,0.7],[0,0.9],[0.1,1],[0.2,1],[0.3,1],[0.4,1],[0.5,1],[0.6,1],[0.7,1],[0.8,1],[0.9,1],[1,0.1],[1,0.3],[1,0.5],[1,0.7],[1,0.9]];" parent="1" vertex="1">
          <mxGeometry x="-795" y="2712" width="70" height="30" as="geometry" />
        </mxCell>
        <mxCell id="NvWkWuXcyiQm78Mj__-v-19" value="sol:Uint" style="rounded=0;whiteSpace=wrap;html=1;snapToPoint=1;points=[[0.1,0],[0.2,0],[0.3,0],[0.4,0],[0.5,0],[0.6,0],[0.7,0],[0.8,0],[0.9,0],[0,0.1],[0,0.3],[0,0.5],[0,0.7],[0,0.9],[0.1,1],[0.2,1],[0.3,1],[0.4,1],[0.5,1],[0.6,1],[0.7,1],[0.8,1],[0.9,1],[1,0.1],[1,0.3],[1,0.5],[1,0.7],[1,0.9]];" parent="1" vertex="1">
          <mxGeometry x="-690" y="2712" width="70" height="30" as="geometry" />
        </mxCell>
        <mxCell id="NvWkWuXcyiQm78Mj__-v-20" value="sol:FixedMxN" style="rounded=0;whiteSpace=wrap;html=1;snapToPoint=1;points=[[0.1,0],[0.2,0],[0.3,0],[0.4,0],[0.5,0],[0.6,0],[0.7,0],[0.8,0],[0.9,0],[0,0.1],[0,0.3],[0,0.5],[0,0.7],[0,0.9],[0.1,1],[0.2,1],[0.3,1],[0.4,1],[0.5,1],[0.6,1],[0.7,1],[0.8,1],[0.9,1],[1,0.1],[1,0.3],[1,0.5],[1,0.7],[1,0.9]];" parent="1" vertex="1">
          <mxGeometry x="-584" y="2711" width="87" height="30" as="geometry" />
        </mxCell>
        <mxCell id="NvWkWuXcyiQm78Mj__-v-21" value="sol:UfixedMxN" style="rounded=0;whiteSpace=wrap;html=1;snapToPoint=1;points=[[0.1,0],[0.2,0],[0.3,0],[0.4,0],[0.5,0],[0.6,0],[0.7,0],[0.8,0],[0.9,0],[0,0.1],[0,0.3],[0,0.5],[0,0.7],[0,0.9],[0.1,1],[0.2,1],[0.3,1],[0.4,1],[0.5,1],[0.6,1],[0.7,1],[0.8,1],[0.9,1],[1,0.1],[1,0.3],[1,0.5],[1,0.7],[1,0.9]];" parent="1" vertex="1">
          <mxGeometry x="-462" y="2711" width="90" height="30" as="geometry" />
        </mxCell>
        <mxCell id="NvWkWuXcyiQm78Mj__-v-22" value="" style="endArrow=block;html=1;fontColor=#000099;endFill=0;endSize=8;arcSize=0;rounded=0;exitX=0.5;exitY=0;exitDx=0;exitDy=0;entryX=0.5;entryY=1;entryDx=0;entryDy=0;" parent="1" source="NvWkWuXcyiQm78Mj__-v-21" target="NvWkWuXcyiQm78Mj__-v-10" edge="1">
          <mxGeometry width="50" height="50" relative="1" as="geometry">
            <mxPoint x="-337" y="2751" as="sourcePoint" />
            <mxPoint x="-400" y="2751" as="targetPoint" />
            <Array as="points">
              <mxPoint x="-417" y="2681" />
              <mxPoint x="-480" y="2681" />
            </Array>
          </mxGeometry>
        </mxCell>
        <mxCell id="NvWkWuXcyiQm78Mj__-v-23" value="" style="endArrow=block;html=1;fontColor=#000099;endFill=0;endSize=8;arcSize=0;rounded=0;exitX=0.5;exitY=0;exitDx=0;exitDy=0;entryX=0.5;entryY=1;entryDx=0;entryDy=0;" parent="1" source="NvWkWuXcyiQm78Mj__-v-20" target="NvWkWuXcyiQm78Mj__-v-10" edge="1">
          <mxGeometry width="50" height="50" relative="1" as="geometry">
            <mxPoint x="-407" y="2771" as="sourcePoint" />
            <mxPoint x="-470" y="2641" as="targetPoint" />
            <Array as="points">
              <mxPoint x="-540" y="2681" />
              <mxPoint x="-480" y="2681" />
            </Array>
          </mxGeometry>
        </mxCell>
        <mxCell id="NvWkWuXcyiQm78Mj__-v-24" value="" style="endArrow=block;html=1;fontColor=#000099;endFill=0;endSize=8;arcSize=0;rounded=0;exitX=0.5;exitY=0;exitDx=0;exitDy=0;entryX=0.5;entryY=1;entryDx=0;entryDy=0;" parent="1" source="NvWkWuXcyiQm78Mj__-v-17" target="NvWkWuXcyiQm78Mj__-v-8" edge="1">
          <mxGeometry width="50" height="50" relative="1" as="geometry">
            <mxPoint x="-816" y="2734" as="sourcePoint" />
            <mxPoint x="-756" y="2670" as="targetPoint" />
            <Array as="points">
              <mxPoint x="-862" y="2687" />
              <mxPoint x="-760" y="2687" />
            </Array>
          </mxGeometry>
        </mxCell>
        <mxCell id="NvWkWuXcyiQm78Mj__-v-25" value="" style="endArrow=block;html=1;fontColor=#000099;endFill=0;endSize=8;arcSize=0;rounded=0;exitX=0.5;exitY=0;exitDx=0;exitDy=0;" parent="1" source="NvWkWuXcyiQm78Mj__-v-18" target="NvWkWuXcyiQm78Mj__-v-8" edge="1">
          <mxGeometry width="50" height="50" relative="1" as="geometry">
            <mxPoint x="-865" y="2764" as="sourcePoint" />
            <mxPoint x="-750" y="2634" as="targetPoint" />
            <Array as="points">
              <mxPoint x="-760" y="2694" />
            </Array>
          </mxGeometry>
        </mxCell>
        <mxCell id="NvWkWuXcyiQm78Mj__-v-26" value="" style="endArrow=block;html=1;fontColor=#000099;endFill=0;endSize=8;arcSize=0;rounded=0;exitX=0.5;exitY=0;exitDx=0;exitDy=0;entryX=0.5;entryY=1;entryDx=0;entryDy=0;" parent="1" source="NvWkWuXcyiQm78Mj__-v-19" target="NvWkWuXcyiQm78Mj__-v-8" edge="1">
          <mxGeometry width="50" height="50" relative="1" as="geometry">
            <mxPoint x="-750" y="2764" as="sourcePoint" />
            <mxPoint x="-750" y="2634" as="targetPoint" />
            <Array as="points">
              <mxPoint x="-655" y="2687" />
              <mxPoint x="-760" y="2687" />
            </Array>
          </mxGeometry>
        </mxCell>
        <mxCell id="NvWkWuXcyiQm78Mj__-v-27" value="" style="endArrow=block;html=1;fontColor=#000099;endFill=0;endSize=8;arcSize=0;rounded=0;exitX=0.5;exitY=0;exitDx=0;exitDy=0;" parent="1" source="NvWkWuXcyiQm78Mj__-v-13" target="7H-r3v3xN0h7ExLqmK3x-61" edge="1">
          <mxGeometry width="50" height="50" relative="1" as="geometry">
            <mxPoint x="-278.5" y="2604" as="sourcePoint" />
            <mxPoint x="-341.5" y="2540" as="targetPoint" />
            <Array as="points">
              <mxPoint x="-230" y="2420" />
              <mxPoint x="-300" y="2420" />
            </Array>
          </mxGeometry>
        </mxCell>
        <mxCell id="NvWkWuXcyiQm78Mj__-v-28" value="" style="endArrow=block;html=1;fontColor=#000099;endFill=0;endSize=8;arcSize=0;rounded=0;exitX=0.5;exitY=0;exitDx=0;exitDy=0;entryX=0.3;entryY=1;entryDx=0;entryDy=0;" parent="1" source="NvWkWuXcyiQm78Mj__-v-11" target="7H-r3v3xN0h7ExLqmK3x-45" edge="1">
          <mxGeometry width="50" height="50" relative="1" as="geometry">
            <mxPoint x="122" y="2440" as="sourcePoint" />
            <mxPoint x="52" y="2050" as="targetPoint" />
            <Array as="points">
              <mxPoint x="-20" y="2380" />
              <mxPoint x="52" y="2380" />
              <mxPoint x="52" y="1840" />
              <mxPoint x="341" y="1840" />
            </Array>
          </mxGeometry>
        </mxCell>
        <mxCell id="NvWkWuXcyiQm78Mj__-v-29" value="" style="endArrow=block;html=1;fontColor=#000099;endFill=0;endSize=8;arcSize=0;rounded=0;exitX=0.2;exitY=0;exitDx=0;exitDy=0;entryX=0.9;entryY=1;entryDx=0;entryDy=0;" parent="1" source="NvWkWuXcyiQm78Mj__-v-11" target="7H-r3v3xN0h7ExLqmK3x-61" edge="1">
          <mxGeometry width="50" height="50" relative="1" as="geometry">
            <mxPoint x="-10" y="2455" as="sourcePoint" />
            <mxPoint x="351" y="1800" as="targetPoint" />
            <Array as="points">
              <mxPoint x="-68" y="2380" />
              <mxPoint x="-68" y="2300" />
              <mxPoint x="-234" y="2300" />
            </Array>
          </mxGeometry>
        </mxCell>
        <mxCell id="NvWkWuXcyiQm78Mj__-v-32" value="" style="endArrow=block;html=1;fontColor=#000099;endFill=0;endSize=8;arcSize=0;rounded=0;entryX=0.8;entryY=0;entryDx=0;entryDy=0;exitX=0.3;exitY=0;exitDx=0;exitDy=0;" parent="1" source="bmZF7T8KRYOrzVGl7_Tg-9" target="7H-r3v3xN0h7ExLqmK3x-61" edge="1">
          <mxGeometry width="50" height="50" relative="1" as="geometry">
            <mxPoint x="240" y="230" as="sourcePoint" />
            <mxPoint x="-510" y="1490" as="targetPoint" />
            <Array as="points">
              <mxPoint x="260" y="190" />
              <mxPoint x="-1120" y="190" />
              <mxPoint x="-1120" y="1730" />
              <mxPoint x="-250" y="1730" />
            </Array>
          </mxGeometry>
        </mxCell>
        <mxCell id="NvWkWuXcyiQm78Mj__-v-34" value="" style="endArrow=block;html=1;fontColor=#000099;endFill=0;endSize=8;arcSize=0;rounded=0;exitX=0.5;exitY=0;exitDx=0;exitDy=0;entryX=0.5;entryY=1;entryDx=0;entryDy=0;" parent="1" source="NvWkWuXcyiQm78Mj__-v-7" target="NvWkWuXcyiQm78Mj__-v-15" edge="1">
          <mxGeometry width="50" height="50" relative="1" as="geometry">
            <mxPoint x="-725" y="2581" as="sourcePoint" />
            <mxPoint x="-665" y="2517" as="targetPoint" />
            <Array as="points">
              <mxPoint x="-760" y="2547" />
              <mxPoint x="-607" y="2547" />
            </Array>
          </mxGeometry>
        </mxCell>
        <mxCell id="NvWkWuXcyiQm78Mj__-v-35" value="" style="endArrow=block;html=1;fontColor=#000099;endFill=0;endSize=8;arcSize=0;rounded=0;exitX=0.5;exitY=0;exitDx=0;exitDy=0;entryX=0.5;entryY=1;entryDx=0;entryDy=0;" parent="1" source="NvWkWuXcyiQm78Mj__-v-9" target="NvWkWuXcyiQm78Mj__-v-15" edge="1">
          <mxGeometry width="50" height="50" relative="1" as="geometry">
            <mxPoint x="-750" y="2610" as="sourcePoint" />
            <mxPoint x="-597" y="2477" as="targetPoint" />
            <Array as="points">
              <mxPoint x="-480" y="2547" />
              <mxPoint x="-607" y="2547" />
            </Array>
          </mxGeometry>
        </mxCell>
        <mxCell id="NvWkWuXcyiQm78Mj__-v-36" value="" style="endArrow=block;html=1;fontColor=#000099;endFill=0;endSize=8;arcSize=0;rounded=0;exitX=0.9;exitY=0;exitDx=0;exitDy=0;entryX=0.858;entryY=1.033;entryDx=0;entryDy=0;entryPerimeter=0;" parent="1" source="NvWkWuXcyiQm78Mj__-v-13" target="7H-r3v3xN0h7ExLqmK3x-46" edge="1">
          <mxGeometry width="50" height="50" relative="1" as="geometry">
            <mxPoint x="-58" y="2455" as="sourcePoint" />
            <mxPoint x="-224" y="2260" as="targetPoint" />
            <Array as="points">
              <mxPoint x="-166" y="2400" />
              <mxPoint x="-166" y="2050" />
              <mxPoint x="140" y="2050" />
            </Array>
          </mxGeometry>
        </mxCell>
        <mxCell id="NvWkWuXcyiQm78Mj__-v-37" value="" style="endArrow=block;html=1;fontColor=#000099;endFill=0;endSize=8;arcSize=0;rounded=0;exitX=0.2;exitY=0;exitDx=0;exitDy=0;entryX=0.1;entryY=1;entryDx=0;entryDy=0;" parent="1" source="NvWkWuXcyiQm78Mj__-v-15" target="7H-r3v3xN0h7ExLqmK3x-61" edge="1">
          <mxGeometry width="50" height="50" relative="1" as="geometry">
            <mxPoint x="-220" y="2650" as="sourcePoint" />
            <mxPoint x="-290" y="2260" as="targetPoint" />
            <Array as="points">
              <mxPoint x="-657" y="2320" />
              <mxPoint x="-366" y="2320" />
            </Array>
          </mxGeometry>
        </mxCell>
        <mxCell id="NvWkWuXcyiQm78Mj__-v-38" value="" style="endArrow=block;html=1;fontColor=#000099;endFill=0;endSize=8;arcSize=0;rounded=0;exitX=0.9;exitY=0;exitDx=0;exitDy=0;entryX=0.2;entryY=1;entryDx=0;entryDy=0;" parent="1" source="NvWkWuXcyiQm78Mj__-v-15" target="7H-r3v3xN0h7ExLqmK3x-46" edge="1">
          <mxGeometry width="50" height="50" relative="1" as="geometry">
            <mxPoint x="-520" y="2512" as="sourcePoint" />
            <mxPoint x="-100" y="1920" as="targetPoint" />
            <Array as="points">
              <mxPoint x="-540" y="2380" />
              <mxPoint x="-100" y="2380" />
              <mxPoint x="-100" y="1960" />
              <mxPoint x="32" y="1960" />
            </Array>
          </mxGeometry>
        </mxCell>
        <mxCell id="NvWkWuXcyiQm78Mj__-v-39" value="" style="endArrow=block;html=1;fontColor=#000099;endFill=0;endSize=8;arcSize=0;rounded=0;exitX=0.4;exitY=0;exitDx=0;exitDy=0;entryX=0;entryY=0.5;entryDx=0;entryDy=0;" parent="1" source="bmZF7T8KRYOrzVGl7_Tg-9" target="7H-r3v3xN0h7ExLqmK3x-46" edge="1">
          <mxGeometry width="50" height="50" relative="1" as="geometry">
            <mxPoint x="305" y="250" as="sourcePoint" />
            <mxPoint x="-240" y="2230" as="targetPoint" />
            <Array as="points">
              <mxPoint x="278" y="180" />
              <mxPoint x="-1140" y="180" />
              <mxPoint x="-1140" y="1775" />
              <mxPoint x="-250" y="1775" />
            </Array>
          </mxGeometry>
        </mxCell>
        <mxCell id="NvWkWuXcyiQm78Mj__-v-40" value="" style="endArrow=block;html=1;fontColor=#000099;endFill=0;endSize=8;arcSize=0;rounded=0;entryX=0.2;entryY=0;entryDx=0;entryDy=0;exitX=0;exitY=0.3;exitDx=0;exitDy=0;" parent="1" source="7H-r3v3xN0h7ExLqmK3x-72" target="7H-r3v3xN0h7ExLqmK3x-34" edge="1">
          <mxGeometry width="50" height="50" relative="1" as="geometry">
            <mxPoint x="-440" y="1405" as="sourcePoint" />
            <mxPoint x="-182" y="1230" as="targetPoint" />
            <Array as="points">
              <mxPoint x="-5" y="1410" />
            </Array>
          </mxGeometry>
        </mxCell>
        <mxCell id="NvWkWuXcyiQm78Mj__-v-41" value="" style="endArrow=classic;html=1;exitX=0.5;exitY=1;exitDx=0;exitDy=0;endSize=8;arcSize=0;rounded=0;entryX=0.2;entryY=0;entryDx=0;entryDy=0;" parent="1" source="bmZF7T8KRYOrzVGl7_Tg-23" target="7H-r3v3xN0h7ExLqmK3x-71" edge="1">
          <mxGeometry width="50" height="50" relative="1" as="geometry">
            <mxPoint x="720" y="1030" as="sourcePoint" />
            <mxPoint x="2311" y="1440" as="targetPoint" />
            <Array as="points">
              <mxPoint x="720" y="1110" />
              <mxPoint x="932" y="1110" />
            </Array>
          </mxGeometry>
        </mxCell>
        <mxCell id="NvWkWuXcyiQm78Mj__-v-42" value="sol:hasFunctionArguments" style="text;html=1;align=center;verticalAlign=middle;resizable=0;points=[];labelBackgroundColor=#ffffff;" parent="NvWkWuXcyiQm78Mj__-v-41" vertex="1" connectable="0">
          <mxGeometry x="-0.1269" relative="1" as="geometry">
            <mxPoint x="-10" as="offset" />
          </mxGeometry>
        </mxCell>
        <mxCell id="NvWkWuXcyiQm78Mj__-v-43" value="" style="endArrow=classic;html=1;exitX=0.8;exitY=1;exitDx=0;exitDy=0;endSize=8;arcSize=0;rounded=0;entryX=0.3;entryY=0;entryDx=0;entryDy=0;" parent="1" source="bmZF7T8KRYOrzVGl7_Tg-23" target="7H-r3v3xN0h7ExLqmK3x-71" edge="1">
          <mxGeometry width="50" height="50" relative="1" as="geometry">
            <mxPoint x="810" y="971" as="sourcePoint" />
            <mxPoint x="1022" y="1380" as="targetPoint" />
            <Array as="points">
              <mxPoint x="770" y="1060" />
              <mxPoint x="953" y="1060" />
            </Array>
          </mxGeometry>
        </mxCell>
        <mxCell id="NvWkWuXcyiQm78Mj__-v-44" value="sol:hasFunctionReturn" style="text;html=1;align=center;verticalAlign=middle;resizable=0;points=[];labelBackgroundColor=#ffffff;" parent="NvWkWuXcyiQm78Mj__-v-43" vertex="1" connectable="0">
          <mxGeometry x="-0.1269" relative="1" as="geometry">
            <mxPoint x="-70" as="offset" />
          </mxGeometry>
        </mxCell>
        <mxCell id="NvWkWuXcyiQm78Mj__-v-46" value="" style="endArrow=classic;html=1;exitX=0.5;exitY=1;exitDx=0;exitDy=0;endSize=8;arcSize=0;rounded=0;entryX=0.5;entryY=0;entryDx=0;entryDy=0;" parent="1" source="bmZF7T8KRYOrzVGl7_Tg-28" target="7H-r3v3xN0h7ExLqmK3x-71" edge="1">
          <mxGeometry width="50" height="50" relative="1" as="geometry">
            <mxPoint x="1050" y="1020" as="sourcePoint" />
            <mxPoint x="1262" y="1429" as="targetPoint" />
            <Array as="points">
              <mxPoint x="960" y="1020" />
              <mxPoint x="995" y="1020" />
            </Array>
          </mxGeometry>
        </mxCell>
        <mxCell id="NvWkWuXcyiQm78Mj__-v-47" value="sol:hasModifierArguments" style="text;html=1;align=center;verticalAlign=middle;resizable=0;points=[];labelBackgroundColor=#ffffff;" parent="NvWkWuXcyiQm78Mj__-v-46" vertex="1" connectable="0">
          <mxGeometry x="-0.1269" relative="1" as="geometry">
            <mxPoint x="-35" y="-100" as="offset" />
          </mxGeometry>
        </mxCell>
        <mxCell id="NvWkWuXcyiQm78Mj__-v-48" value="" style="endArrow=classic;html=1;exitX=0.5;exitY=1;exitDx=0;exitDy=0;endSize=8;arcSize=0;rounded=0;entryX=0.7;entryY=0;entryDx=0;entryDy=0;" parent="1" source="bmZF7T8KRYOrzVGl7_Tg-38" target="7H-r3v3xN0h7ExLqmK3x-71" edge="1">
          <mxGeometry width="50" height="50" relative="1" as="geometry">
            <mxPoint x="970" y="971" as="sourcePoint" />
            <mxPoint x="1005" y="1380" as="targetPoint" />
            <Array as="points">
              <mxPoint x="1190" y="1080" />
              <mxPoint x="1040" y="1080" />
            </Array>
          </mxGeometry>
        </mxCell>
        <mxCell id="NvWkWuXcyiQm78Mj__-v-49" value="sol:hasEventArguments" style="text;html=1;align=center;verticalAlign=middle;resizable=0;points=[];labelBackgroundColor=#ffffff;" parent="NvWkWuXcyiQm78Mj__-v-48" vertex="1" connectable="0">
          <mxGeometry x="-0.1269" relative="1" as="geometry">
            <mxPoint x="64" as="offset" />
          </mxGeometry>
        </mxCell>
        <mxCell id="NvWkWuXcyiQm78Mj__-v-50" value="sol:ParameterType" style="rounded=0;whiteSpace=wrap;html=1;snapToPoint=1;points=[[0.1,0],[0.2,0],[0.3,0],[0.4,0],[0.5,0],[0.6,0],[0.7,0],[0.8,0],[0.9,0],[0,0.1],[0,0.3],[0,0.5],[0,0.7],[0,0.9],[0.1,1],[0.2,1],[0.3,1],[0.4,1],[0.5,1],[0.6,1],[0.7,1],[0.8,1],[0.9,1],[1,0.1],[1,0.3],[1,0.5],[1,0.7],[1,0.9]];fillColor=#d5e8d4;strokeColor=#82b366;" parent="1" vertex="1">
          <mxGeometry x="915" y="1620" width="160" height="30" as="geometry" />
        </mxCell>
        <mxCell id="NvWkWuXcyiQm78Mj__-v-51" value="" style="endArrow=classic;html=1;exitX=0.5;exitY=1;exitDx=0;exitDy=0;endSize=8;arcSize=0;rounded=0;entryX=0.5;entryY=0;entryDx=0;entryDy=0;" parent="1" source="7H-r3v3xN0h7ExLqmK3x-72" target="NvWkWuXcyiQm78Mj__-v-50" edge="1">
          <mxGeometry width="50" height="50" relative="1" as="geometry">
            <mxPoint x="1190" y="1465" as="sourcePoint" />
            <mxPoint x="1225" y="1870" as="targetPoint" />
            <Array as="points" />
          </mxGeometry>
        </mxCell>
        <mxCell id="NvWkWuXcyiQm78Mj__-v-52" value="sol:hasParameterType" style="text;html=1;align=center;verticalAlign=middle;resizable=0;points=[];labelBackgroundColor=#ffffff;" parent="NvWkWuXcyiQm78Mj__-v-51" vertex="1" connectable="0">
          <mxGeometry x="-0.1269" relative="1" as="geometry">
            <mxPoint y="11" as="offset" />
          </mxGeometry>
        </mxCell>
        <mxCell id="NvWkWuXcyiQm78Mj__-v-53" value="sol:DataLocation" style="rounded=0;whiteSpace=wrap;html=1;snapToPoint=1;points=[[0.1,0],[0.2,0],[0.3,0],[0.4,0],[0.5,0],[0.6,0],[0.7,0],[0.8,0],[0.9,0],[0,0.1],[0,0.3],[0,0.5],[0,0.7],[0,0.9],[0.1,1],[0.2,1],[0.3,1],[0.4,1],[0.5,1],[0.6,1],[0.7,1],[0.8,1],[0.9,1],[1,0.1],[1,0.3],[1,0.5],[1,0.7],[1,0.9]];fillColor=#f8cecc;strokeColor=#b85450;" parent="1" vertex="1">
          <mxGeometry x="1460" y="1602" width="160" height="30" as="geometry" />
        </mxCell>
        <mxCell id="NvWkWuXcyiQm78Mj__-v-55" value="sol:ParameterTypeWithDataLocation" style="rounded=0;whiteSpace=wrap;html=1;snapToPoint=1;points=[[0.1,0],[0.2,0],[0.3,0],[0.4,0],[0.5,0],[0.6,0],[0.7,0],[0.8,0],[0.9,0],[0,0.1],[0,0.3],[0,0.5],[0,0.7],[0,0.9],[0.1,1],[0.2,1],[0.3,1],[0.4,1],[0.5,1],[0.6,1],[0.7,1],[0.8,1],[0.9,1],[1,0.1],[1,0.3],[1,0.5],[1,0.7],[1,0.9]];fillColor=#d5e8d4;strokeColor=#82b366;" parent="1" vertex="1">
          <mxGeometry x="1149" y="1620" width="210" height="30" as="geometry" />
        </mxCell>
        <mxCell id="NvWkWuXcyiQm78Mj__-v-56" value="" style="endArrow=block;html=1;fontColor=#000099;endFill=0;endSize=8;arcSize=0;rounded=0;entryX=1;entryY=0.5;entryDx=0;entryDy=0;exitX=0;exitY=0.5;exitDx=0;exitDy=0;" parent="1" source="NvWkWuXcyiQm78Mj__-v-55" target="NvWkWuXcyiQm78Mj__-v-50" edge="1">
          <mxGeometry width="50" height="50" relative="1" as="geometry">
            <mxPoint x="1270" y="1800" as="sourcePoint" />
            <mxPoint x="1171" y="1720" as="targetPoint" />
            <Array as="points">
              <mxPoint x="1150" y="1635" />
            </Array>
          </mxGeometry>
        </mxCell>
        <mxCell id="NvWkWuXcyiQm78Mj__-v-57" value="" style="endArrow=classic;html=1;exitX=0.5;exitY=0;exitDx=0;exitDy=0;endSize=8;arcSize=0;rounded=0;entryX=0.5;entryY=0;entryDx=0;entryDy=0;" parent="1" source="NvWkWuXcyiQm78Mj__-v-55" target="NvWkWuXcyiQm78Mj__-v-53" edge="1">
          <mxGeometry width="50" height="50" relative="1" as="geometry">
            <mxPoint x="1539.47" y="1410" as="sourcePoint" />
            <mxPoint x="1539.47" y="1594" as="targetPoint" />
            <Array as="points">
              <mxPoint x="1254" y="1540" />
              <mxPoint x="1540" y="1540" />
            </Array>
          </mxGeometry>
        </mxCell>
        <mxCell id="NvWkWuXcyiQm78Mj__-v-58" value="sol:hasParameterTypeWithDataLocation" style="text;html=1;align=center;verticalAlign=middle;resizable=0;points=[];labelBackgroundColor=#ffffff;" parent="NvWkWuXcyiQm78Mj__-v-57" vertex="1" connectable="0">
          <mxGeometry x="-0.1269" relative="1" as="geometry">
            <mxPoint x="39" as="offset" />
          </mxGeometry>
        </mxCell>
        <mxCell id="NvWkWuXcyiQm78Mj__-v-59" value="sol:FunctionBehaviour" style="rounded=0;whiteSpace=wrap;html=1;snapToPoint=1;points=[[0.1,0],[0.2,0],[0.3,0],[0.4,0],[0.5,0],[0.6,0],[0.7,0],[0.8,0],[0.9,0],[0,0.1],[0,0.3],[0,0.5],[0,0.7],[0,0.9],[0.1,1],[0.2,1],[0.3,1],[0.4,1],[0.5,1],[0.6,1],[0.7,1],[0.8,1],[0.9,1],[1,0.1],[1,0.3],[1,0.5],[1,0.7],[1,0.9]];fillColor=#f8cecc;strokeColor=#b85450;" parent="1" vertex="1">
          <mxGeometry x="414" y="1105" width="160" height="30" as="geometry" />
        </mxCell>
        <mxCell id="NvWkWuXcyiQm78Mj__-v-61" value="" style="endArrow=classic;html=1;exitX=0.2;exitY=1;exitDx=0;exitDy=0;endSize=8;arcSize=0;rounded=0;entryX=0.8;entryY=0;entryDx=0;entryDy=0;" parent="1" source="bmZF7T8KRYOrzVGl7_Tg-23" target="NvWkWuXcyiQm78Mj__-v-59" edge="1">
          <mxGeometry width="50" height="50" relative="1" as="geometry">
            <mxPoint x="730" y="971" as="sourcePoint" />
            <mxPoint x="490" y="1090" as="targetPoint" />
            <Array as="points">
              <mxPoint x="672" y="1050" />
              <mxPoint x="542" y="1050" />
            </Array>
          </mxGeometry>
        </mxCell>
        <mxCell id="NvWkWuXcyiQm78Mj__-v-62" value="sol:hasFunctionBehaviour" style="text;html=1;align=center;verticalAlign=middle;resizable=0;points=[];labelBackgroundColor=#ffffff;rotation=-90;" parent="NvWkWuXcyiQm78Mj__-v-61" vertex="1" connectable="0">
          <mxGeometry x="-0.1269" relative="1" as="geometry">
            <mxPoint x="29" as="offset" />
          </mxGeometry>
        </mxCell>
        <mxCell id="NvWkWuXcyiQm78Mj__-v-64" value="" style="endArrow=classic;html=1;exitX=0.5;exitY=0;exitDx=0;exitDy=0;endSize=8;arcSize=0;rounded=0;entryX=0.2;entryY=0;entryDx=0;entryDy=0;" parent="1" source="NvWkWuXcyiQm78Mj__-v-59" target="bmZF7T8KRYOrzVGl7_Tg-27" edge="1">
          <mxGeometry width="50" height="50" relative="1" as="geometry">
            <mxPoint x="778" y="971" as="sourcePoint" />
            <mxPoint x="963" y="1376" as="targetPoint" />
            <Array as="points">
              <mxPoint x="494" y="730" />
              <mxPoint x="912" y="730" />
            </Array>
          </mxGeometry>
        </mxCell>
        <mxCell id="NvWkWuXcyiQm78Mj__-v-65" value="sol:isDefinedAs" style="text;html=1;align=center;verticalAlign=middle;resizable=0;points=[];labelBackgroundColor=#ffffff;" parent="NvWkWuXcyiQm78Mj__-v-64" vertex="1" connectable="0">
          <mxGeometry x="-0.1269" relative="1" as="geometry">
            <mxPoint x="314" as="offset" />
          </mxGeometry>
        </mxCell>
        <mxCell id="NvWkWuXcyiQm78Mj__-v-68" value="" style="endArrow=block;html=1;fontColor=#000099;endFill=0;endSize=8;arcSize=0;rounded=0;entryX=0.9;entryY=1;entryDx=0;entryDy=0;exitX=0.5;exitY=1;exitDx=0;exitDy=0;" parent="1" source="NvWkWuXcyiQm78Mj__-v-71" target="NvWkWuXcyiQm78Mj__-v-55" edge="1">
          <mxGeometry width="50" height="50" relative="1" as="geometry">
            <mxPoint x="-260" y="2800" as="sourcePoint" />
            <mxPoint x="663" y="2070" as="targetPoint" />
            <Array as="points">
              <mxPoint x="-332" y="2680" />
              <mxPoint x="1340" y="2679" />
            </Array>
          </mxGeometry>
        </mxCell>
        <mxCell id="NvWkWuXcyiQm78Mj__-v-69" value="" style="endArrow=block;html=1;fontColor=#000099;endFill=0;endSize=8;arcSize=0;rounded=0;entryX=0.7;entryY=1;entryDx=0;entryDy=0;exitX=1;exitY=0.5;exitDx=0;exitDy=0;" parent="1" source="bmZF7T8KRYOrzVGl7_Tg-12" target="NvWkWuXcyiQm78Mj__-v-55" edge="1">
          <mxGeometry width="50" height="50" relative="1" as="geometry">
            <mxPoint x="1134" y="1860" as="sourcePoint" />
            <mxPoint x="1060" y="1860" as="targetPoint" />
            <Array as="points">
              <mxPoint x="1296" y="1885" />
            </Array>
          </mxGeometry>
        </mxCell>
        <mxCell id="NvWkWuXcyiQm78Mj__-v-70" value="" style="endArrow=block;html=1;fontColor=#000099;endFill=0;endSize=8;arcSize=0;rounded=0;entryX=0.5;entryY=1;entryDx=0;entryDy=0;exitX=1;exitY=0.5;exitDx=0;exitDy=0;" parent="1" source="7H-r3v3xN0h7ExLqmK3x-58" target="NvWkWuXcyiQm78Mj__-v-55" edge="1">
          <mxGeometry width="50" height="50" relative="1" as="geometry">
            <mxPoint x="198" y="2510" as="sourcePoint" />
            <mxPoint x="876" y="2275" as="targetPoint" />
            <Array as="points">
              <mxPoint x="1250" y="2350" />
            </Array>
          </mxGeometry>
        </mxCell>
        <mxCell id="NvWkWuXcyiQm78Mj__-v-71" value="sol:Address" style="rounded=0;whiteSpace=wrap;html=1;snapToPoint=1;points=[[0.1,0],[0.2,0],[0.3,0],[0.4,0],[0.5,0],[0.6,0],[0.7,0],[0.8,0],[0.9,0],[0,0.1],[0,0.3],[0,0.5],[0,0.7],[0,0.9],[0.1,1],[0.2,1],[0.3,1],[0.4,1],[0.5,1],[0.6,1],[0.7,1],[0.8,1],[0.9,1],[1,0.1],[1,0.3],[1,0.5],[1,0.7],[1,0.9]];" parent="1" vertex="1">
          <mxGeometry x="-367" y="2630" width="70" height="30" as="geometry" />
        </mxCell>
        <mxCell id="NvWkWuXcyiQm78Mj__-v-72" value="sol:Bool" style="rounded=0;whiteSpace=wrap;html=1;snapToPoint=1;points=[[0.1,0],[0.2,0],[0.3,0],[0.4,0],[0.5,0],[0.6,0],[0.7,0],[0.8,0],[0.9,0],[0,0.1],[0,0.3],[0,0.5],[0,0.7],[0,0.9],[0.1,1],[0.2,1],[0.3,1],[0.4,1],[0.5,1],[0.6,1],[0.7,1],[0.8,1],[0.9,1],[1,0.1],[1,0.3],[1,0.5],[1,0.7],[1,0.9]];" parent="1" vertex="1">
          <mxGeometry x="-265" y="2630" width="70" height="30" as="geometry" />
        </mxCell>
        <mxCell id="NvWkWuXcyiQm78Mj__-v-73" value="sol:String" style="rounded=0;whiteSpace=wrap;html=1;snapToPoint=1;points=[[0.1,0],[0.2,0],[0.3,0],[0.4,0],[0.5,0],[0.6,0],[0.7,0],[0.8,0],[0.9,0],[0,0.1],[0,0.3],[0,0.5],[0,0.7],[0,0.9],[0.1,1],[0.2,1],[0.3,1],[0.4,1],[0.5,1],[0.6,1],[0.7,1],[0.8,1],[0.9,1],[1,0.1],[1,0.3],[1,0.5],[1,0.7],[1,0.9]];" parent="1" vertex="1">
          <mxGeometry x="-160" y="2630" width="70" height="30" as="geometry" />
        </mxCell>
        <mxCell id="NvWkWuXcyiQm78Mj__-v-74" value="" style="endArrow=block;html=1;fontColor=#000099;endFill=0;endSize=8;arcSize=0;rounded=0;exitX=0.5;exitY=0;exitDx=0;exitDy=0;entryX=0.5;entryY=1;entryDx=0;entryDy=0;" parent="1" source="NvWkWuXcyiQm78Mj__-v-71" target="NvWkWuXcyiQm78Mj__-v-13" edge="1">
          <mxGeometry width="50" height="50" relative="1" as="geometry">
            <mxPoint x="-286" y="2673" as="sourcePoint" />
            <mxPoint x="-230" y="2570" as="targetPoint" />
            <Array as="points">
              <mxPoint x="-332" y="2590" />
              <mxPoint x="-230" y="2590" />
            </Array>
          </mxGeometry>
        </mxCell>
        <mxCell id="NvWkWuXcyiQm78Mj__-v-75" value="" style="endArrow=block;html=1;fontColor=#000099;endFill=0;endSize=8;arcSize=0;rounded=0;exitX=0.5;exitY=0;exitDx=0;exitDy=0;" parent="1" source="NvWkWuXcyiQm78Mj__-v-72" target="NvWkWuXcyiQm78Mj__-v-13" edge="1">
          <mxGeometry width="50" height="50" relative="1" as="geometry">
            <mxPoint x="-335" y="2703" as="sourcePoint" />
            <mxPoint x="-230" y="2570" as="targetPoint" />
            <Array as="points">
              <mxPoint x="-230" y="2633" />
            </Array>
          </mxGeometry>
        </mxCell>
        <mxCell id="NvWkWuXcyiQm78Mj__-v-76" value="" style="endArrow=block;html=1;fontColor=#000099;endFill=0;endSize=8;arcSize=0;rounded=0;exitX=0.5;exitY=0;exitDx=0;exitDy=0;entryX=0.5;entryY=1;entryDx=0;entryDy=0;" parent="1" source="NvWkWuXcyiQm78Mj__-v-73" target="NvWkWuXcyiQm78Mj__-v-13" edge="1">
          <mxGeometry width="50" height="50" relative="1" as="geometry">
            <mxPoint x="-220" y="2703" as="sourcePoint" />
            <mxPoint x="-230" y="2570" as="targetPoint" />
            <Array as="points">
              <mxPoint x="-125" y="2590" />
              <mxPoint x="-230" y="2590" />
            </Array>
          </mxGeometry>
        </mxCell>
        <mxCell id="NvWkWuXcyiQm78Mj__-v-77" value="" style="endArrow=block;html=1;fontColor=#000099;endFill=0;endSize=8;arcSize=0;rounded=0;exitX=0.5;exitY=1;exitDx=0;exitDy=0;entryX=0.9;entryY=1;entryDx=0;entryDy=0;" parent="1" source="NvWkWuXcyiQm78Mj__-v-73" target="NvWkWuXcyiQm78Mj__-v-55" edge="1">
          <mxGeometry width="50" height="50" relative="1" as="geometry">
            <mxPoint x="-322" y="2670" as="sourcePoint" />
            <mxPoint x="1340" y="1710" as="targetPoint" />
            <Array as="points">
              <mxPoint x="-125" y="2680" />
              <mxPoint x="1340" y="2680" />
            </Array>
          </mxGeometry>
        </mxCell>
        <mxCell id="NvWkWuXcyiQm78Mj__-v-78" value="" style="endArrow=block;html=1;fontColor=#000099;endFill=0;endSize=8;arcSize=0;rounded=0;entryX=0.9;entryY=1;entryDx=0;entryDy=0;exitX=0.5;exitY=1;exitDx=0;exitDy=0;" parent="1" source="NvWkWuXcyiQm78Mj__-v-18" target="NvWkWuXcyiQm78Mj__-v-55" edge="1">
          <mxGeometry width="50" height="50" relative="1" as="geometry">
            <mxPoint x="-360" y="2770" as="sourcePoint" />
            <mxPoint x="1310" y="1760" as="targetPoint" />
            <Array as="points">
              <mxPoint x="-760" y="2760" />
              <mxPoint x="1340" y="2760" />
            </Array>
          </mxGeometry>
        </mxCell>
        <mxCell id="NvWkWuXcyiQm78Mj__-v-79" value="" style="endArrow=block;html=1;fontColor=#000099;endFill=0;endSize=8;arcSize=0;rounded=0;entryX=0.5;entryY=1;entryDx=0;entryDy=0;exitX=0.8;exitY=0;exitDx=0;exitDy=0;" parent="1" source="NvWkWuXcyiQm78Mj__-v-11" target="NvWkWuXcyiQm78Mj__-v-50" edge="1">
          <mxGeometry width="50" height="50" relative="1" as="geometry">
            <mxPoint x="720" y="2250" as="sourcePoint" />
            <mxPoint x="621" y="2170" as="targetPoint" />
            <Array as="points">
              <mxPoint x="28" y="2400" />
              <mxPoint x="990" y="2400" />
            </Array>
          </mxGeometry>
        </mxCell>
        <mxCell id="NvWkWuXcyiQm78Mj__-v-80" value="" style="endArrow=block;html=1;fontColor=#000099;endFill=0;endSize=8;arcSize=0;rounded=0;entryX=0.5;entryY=1;entryDx=0;entryDy=0;exitX=0.5;exitY=0;exitDx=0;exitDy=0;" parent="1" source="NvWkWuXcyiQm78Mj__-v-15" target="NvWkWuXcyiQm78Mj__-v-50" edge="1">
          <mxGeometry width="50" height="50" relative="1" as="geometry">
            <mxPoint x="-52" y="2495" as="sourcePoint" />
            <mxPoint x="915" y="1700" as="targetPoint" />
            <Array as="points">
              <mxPoint x="-607" y="2400" />
              <mxPoint x="990" y="2400" />
            </Array>
          </mxGeometry>
        </mxCell>
        <mxCell id="NvWkWuXcyiQm78Mj__-v-81" value="" style="endArrow=block;html=1;fontColor=#000099;endFill=0;endSize=8;arcSize=0;rounded=0;exitX=0.9;exitY=0;exitDx=0;exitDy=0;entryX=0.9;entryY=0;entryDx=0;entryDy=0;" parent="1" source="bmZF7T8KRYOrzVGl7_Tg-9" target="NvWkWuXcyiQm78Mj__-v-50" edge="1">
          <mxGeometry width="50" height="50" relative="1" as="geometry">
            <mxPoint x="403.5" y="225" as="sourcePoint" />
            <mxPoint x="1240" y="1420" as="targetPoint" />
            <Array as="points">
              <mxPoint x="367" y="200" />
              <mxPoint x="1320" y="200" />
              <mxPoint x="1320" y="1180" />
              <mxPoint x="1320" y="1250" />
              <mxPoint x="1320" y="1480" />
              <mxPoint x="1059" y="1480" />
            </Array>
          </mxGeometry>
        </mxCell>
        <mxCell id="NvWkWuXcyiQm78Mj__-v-82" value="" style="endArrow=block;html=1;fontColor=#000099;endFill=0;endSize=8;arcSize=0;rounded=0;entryX=0.5;entryY=1;entryDx=0;entryDy=0;exitX=1;exitY=0.5;exitDx=0;exitDy=0;" parent="1" source="NvWkWuXcyiQm78Mj__-v-13" target="NvWkWuXcyiQm78Mj__-v-50" edge="1">
          <mxGeometry width="50" height="50" relative="1" as="geometry">
            <mxPoint x="52" y="2542" as="sourcePoint" />
            <mxPoint x="1019" y="1747" as="targetPoint" />
            <Array as="points">
              <mxPoint x="60" y="2527" />
              <mxPoint x="990" y="2527" />
            </Array>
          </mxGeometry>
        </mxCell>
        <mxCell id="NvWkWuXcyiQm78Mj__-v-83" value="sol:ModifierBehaviour" style="rounded=0;whiteSpace=wrap;html=1;snapToPoint=1;points=[[0.1,0],[0.2,0],[0.3,0],[0.4,0],[0.5,0],[0.6,0],[0.7,0],[0.8,0],[0.9,0],[0,0.1],[0,0.3],[0,0.5],[0,0.7],[0,0.9],[0.1,1],[0.2,1],[0.3,1],[0.4,1],[0.5,1],[0.6,1],[0.7,1],[0.8,1],[0.9,1],[1,0.1],[1,0.3],[1,0.5],[1,0.7],[1,0.9]];fillColor=#f8cecc;strokeColor=#b85450;" parent="1" vertex="1">
          <mxGeometry x="1380" y="1105" width="160" height="30" as="geometry" />
        </mxCell>
        <mxCell id="NvWkWuXcyiQm78Mj__-v-85" value="" style="endArrow=classic;html=1;exitX=0.8;exitY=1;exitDx=0;exitDy=0;endSize=8;arcSize=0;rounded=0;entryX=0.8;entryY=0;entryDx=0;entryDy=0;" parent="1" source="bmZF7T8KRYOrzVGl7_Tg-28" target="NvWkWuXcyiQm78Mj__-v-83" edge="1">
          <mxGeometry width="50" height="50" relative="1" as="geometry">
            <mxPoint x="1270" y="1105" as="sourcePoint" />
            <mxPoint x="1140" y="1249" as="targetPoint" />
            <Array as="points">
              <mxPoint x="1008" y="990" />
              <mxPoint x="1508" y="990" />
            </Array>
          </mxGeometry>
        </mxCell>
        <mxCell id="NvWkWuXcyiQm78Mj__-v-86" value="sol:hasModifierBehaviour" style="text;html=1;align=center;verticalAlign=middle;resizable=0;points=[];labelBackgroundColor=#ffffff;rotation=0;" parent="NvWkWuXcyiQm78Mj__-v-85" vertex="1" connectable="0">
          <mxGeometry x="-0.1269" relative="1" as="geometry">
            <mxPoint x="199" as="offset" />
          </mxGeometry>
        </mxCell>
        <mxCell id="NvWkWuXcyiQm78Mj__-v-87" value="sol:ModifierOverrideSpecification" style="rounded=0;whiteSpace=wrap;html=1;snapToPoint=1;points=[[0.1,0],[0.2,0],[0.3,0],[0.4,0],[0.5,0],[0.6,0],[0.7,0],[0.8,0],[0.9,0],[0,0.1],[0,0.3],[0,0.5],[0,0.7],[0,0.9],[0.1,1],[0.2,1],[0.3,1],[0.4,1],[0.5,1],[0.6,1],[0.7,1],[0.8,1],[0.9,1],[1,0.1],[1,0.3],[1,0.5],[1,0.7],[1,0.9]];fillColor=#e1d5e7;strokeColor=#9673a6;" parent="1" vertex="1">
          <mxGeometry x="618" y="1508" width="210" height="30" as="geometry" />
        </mxCell>
        <mxCell id="NvWkWuXcyiQm78Mj__-v-88" value="" style="endArrow=classic;html=1;exitX=0.1;exitY=1;exitDx=0;exitDy=0;endSize=8;arcSize=0;rounded=0;entryX=0.2;entryY=0;entryDx=0;entryDy=0;" parent="1" source="bmZF7T8KRYOrzVGl7_Tg-28" target="NvWkWuXcyiQm78Mj__-v-87" edge="1">
          <mxGeometry width="50" height="50" relative="1" as="geometry">
            <mxPoint x="778" y="971" as="sourcePoint" />
            <mxPoint x="963" y="1376" as="targetPoint" />
            <Array as="points">
              <mxPoint x="896" y="990" />
              <mxPoint x="750" y="990" />
              <mxPoint x="750" y="1180" />
              <mxPoint x="660" y="1180" />
            </Array>
          </mxGeometry>
        </mxCell>
        <mxCell id="NvWkWuXcyiQm78Mj__-v-89" value="sol:hasOverrideReturn" style="text;html=1;align=center;verticalAlign=middle;resizable=0;points=[];labelBackgroundColor=#ffffff;" parent="NvWkWuXcyiQm78Mj__-v-88" vertex="1" connectable="0">
          <mxGeometry x="-0.1269" relative="1" as="geometry">
            <mxPoint x="-27" y="23" as="offset" />
          </mxGeometry>
        </mxCell>
        <mxCell id="NvWkWuXcyiQm78Mj__-v-90" value="" style="endArrow=block;html=1;fontColor=#000099;endFill=0;endSize=8;arcSize=0;rounded=0;entryX=0.8;entryY=0;entryDx=0;entryDy=0;exitX=0.1;exitY=0;exitDx=0;exitDy=0;" parent="1" source="NvWkWuXcyiQm78Mj__-v-87" target="7H-r3v3xN0h7ExLqmK3x-34" edge="1">
          <mxGeometry width="50" height="50" relative="1" as="geometry">
            <mxPoint x="544" y="1290" as="sourcePoint" />
            <mxPoint x="470" y="1290" as="targetPoint" />
            <Array as="points">
              <mxPoint x="639" y="1460" />
              <mxPoint x="126" y="1460" />
            </Array>
          </mxGeometry>
        </mxCell>
        <mxCell id="NvWkWuXcyiQm78Mj__-v-91" value="sol:ModifierOverrideTipe" style="rounded=0;whiteSpace=wrap;html=1;snapToPoint=1;points=[[0.1,0],[0.2,0],[0.3,0],[0.4,0],[0.5,0],[0.6,0],[0.7,0],[0.8,0],[0.9,0],[0,0.1],[0,0.3],[0,0.5],[0,0.7],[0,0.9],[0.1,1],[0.2,1],[0.3,1],[0.4,1],[0.5,1],[0.6,1],[0.7,1],[0.8,1],[0.9,1],[1,0.1],[1,0.3],[1,0.5],[1,0.7],[1,0.9]];fillColor=#e1d5e7;strokeColor=#9673a6;" parent="1" vertex="1">
          <mxGeometry x="618" y="1650" width="210" height="30" as="geometry" />
        </mxCell>
        <mxCell id="NvWkWuXcyiQm78Mj__-v-92" value="" style="endArrow=classic;html=1;endSize=8;arcSize=0;rounded=0;entryX=0.5;entryY=0;entryDx=0;entryDy=0;" parent="1" source="NvWkWuXcyiQm78Mj__-v-87" target="NvWkWuXcyiQm78Mj__-v-91" edge="1">
          <mxGeometry width="50" height="50" relative="1" as="geometry">
            <mxPoint x="740" y="1630" as="sourcePoint" />
            <mxPoint x="740" y="1814" as="targetPoint" />
            <Array as="points" />
          </mxGeometry>
        </mxCell>
        <mxCell id="NvWkWuXcyiQm78Mj__-v-93" value="sol:hasModifierOverrideType" style="text;html=1;align=center;verticalAlign=middle;resizable=0;points=[];labelBackgroundColor=#ffffff;" parent="NvWkWuXcyiQm78Mj__-v-92" vertex="1" connectable="0">
          <mxGeometry x="-0.1269" relative="1" as="geometry">
            <mxPoint y="11" as="offset" />
          </mxGeometry>
        </mxCell>
        <mxCell id="NvWkWuXcyiQm78Mj__-v-94" value="" style="endArrow=block;html=1;fontColor=#000099;endFill=0;endSize=8;arcSize=0;rounded=0;exitX=0.8;exitY=0;exitDx=0;exitDy=0;entryX=0.9;entryY=1;entryDx=0;entryDy=0;" parent="1" source="bmZF7T8KRYOrzVGl7_Tg-9" target="NvWkWuXcyiQm78Mj__-v-91" edge="1">
          <mxGeometry width="50" height="50" relative="1" as="geometry">
            <mxPoint x="377" y="250" as="sourcePoint" />
            <mxPoint x="850" y="1750" as="targetPoint" />
            <Array as="points">
              <mxPoint x="349" y="190" />
              <mxPoint x="1330" y="190" />
              <mxPoint x="1330" y="1190" />
              <mxPoint x="1330" y="1260" />
              <mxPoint x="1330" y="1490" />
              <mxPoint x="1120" y="1490" />
              <mxPoint x="1120" y="1750" />
              <mxPoint x="807" y="1750" />
            </Array>
          </mxGeometry>
        </mxCell>
        <mxCell id="NvWkWuXcyiQm78Mj__-v-95" value="" style="endArrow=block;html=1;fontColor=#000099;endFill=0;endSize=8;arcSize=0;rounded=0;exitX=0.6;exitY=1;exitDx=0;exitDy=0;entryX=0.5;entryY=1;entryDx=0;entryDy=0;" parent="1" source="7H-r3v3xN0h7ExLqmK3x-46" target="7H-r3v3xN0h7ExLqmK3x-60" edge="1">
          <mxGeometry width="50" height="50" relative="1" as="geometry">
            <mxPoint x="-220" y="2522" as="sourcePoint" />
            <mxPoint x="-290" y="2260" as="targetPoint" />
            <Array as="points">
              <mxPoint x="100" y="2280" />
              <mxPoint x="-515" y="2280" />
            </Array>
          </mxGeometry>
        </mxCell>
        <mxCell id="NvWkWuXcyiQm78Mj__-v-96" value="" style="endArrow=block;html=1;fontColor=#000099;endFill=0;endSize=8;arcSize=0;rounded=0;exitX=0.9;exitY=0;exitDx=0;exitDy=0;entryX=0.445;entryY=1.014;entryDx=0;entryDy=0;entryPerimeter=0;" parent="1" source="7H-r3v3xN0h7ExLqmK3x-58" target="7H-r3v3xN0h7ExLqmK3x-46" edge="1">
          <mxGeometry width="50" height="50" relative="1" as="geometry">
            <mxPoint x="-531" y="2499" as="sourcePoint" />
            <mxPoint x="42" y="1800" as="targetPoint" />
            <Array as="points">
              <mxPoint x="-772" y="2310" />
              <mxPoint x="-90" y="2310" />
              <mxPoint x="71" y="2310" />
            </Array>
          </mxGeometry>
        </mxCell>
        <mxCell id="NvWkWuXcyiQm78Mj__-v-97" value="" style="endArrow=block;html=1;fontColor=#000099;endFill=0;endSize=8;arcSize=0;rounded=0;exitX=0.7;exitY=1;exitDx=0;exitDy=0;entryX=0.5;entryY=1;entryDx=0;entryDy=0;" parent="1" source="7H-r3v3xN0h7ExLqmK3x-45" target="7H-r3v3xN0h7ExLqmK3x-60" edge="1">
          <mxGeometry width="50" height="50" relative="1" as="geometry">
            <mxPoint x="204" y="1820" as="sourcePoint" />
            <mxPoint x="-407" y="2280" as="targetPoint" />
            <Array as="points">
              <mxPoint x="405" y="2280" />
              <mxPoint x="-515" y="2280" />
            </Array>
          </mxGeometry>
        </mxCell>
        <mxCell id="NvWkWuXcyiQm78Mj__-v-98" value="" style="endArrow=block;html=1;fontColor=#000099;endFill=0;endSize=8;arcSize=0;rounded=0;entryX=0.2;entryY=1;entryDx=0;entryDy=0;exitX=1;exitY=0.5;exitDx=0;exitDy=0;" parent="1" source="7H-r3v3xN0h7ExLqmK3x-61" target="NvWkWuXcyiQm78Mj__-v-55" edge="1">
          <mxGeometry width="50" height="50" relative="1" as="geometry">
            <mxPoint x="510" y="2185" as="sourcePoint" />
            <mxPoint x="1188" y="1950" as="targetPoint" />
            <Array as="points">
              <mxPoint x="1191" y="2235" />
            </Array>
          </mxGeometry>
        </mxCell>
        <mxCell id="NvWkWuXcyiQm78Mj__-v-102" value="sol:ValueSpecification" style="rounded=0;whiteSpace=wrap;html=1;snapToPoint=1;points=[[0.1,0],[0.2,0],[0.3,0],[0.4,0],[0.5,0],[0.6,0],[0.7,0],[0.8,0],[0.9,0],[0,0.1],[0,0.3],[0,0.5],[0,0.7],[0,0.9],[0.1,1],[0.2,1],[0.3,1],[0.4,1],[0.5,1],[0.6,1],[0.7,1],[0.8,1],[0.9,1],[1,0.1],[1,0.3],[1,0.5],[1,0.7],[1,0.9]];fillColor=#e1d5e7;strokeColor=#9673a6;" parent="1" vertex="1">
          <mxGeometry x="-1680" y="1840" width="160" height="30" as="geometry" />
        </mxCell>
        <mxCell id="NvWkWuXcyiQm78Mj__-v-103" value="sol:isConstant: boolean" style="rounded=0;whiteSpace=wrap;html=1;snapToPoint=1;points=[[0.1,0],[0.2,0],[0.3,0],[0.4,0],[0.5,0],[0.6,0],[0.7,0],[0.8,0],[0.9,0],[0,0.1],[0,0.3],[0,0.5],[0,0.7],[0,0.9],[0.1,1],[0.2,1],[0.3,1],[0.4,1],[0.5,1],[0.6,1],[0.7,1],[0.8,1],[0.9,1],[1,0.1],[1,0.3],[1,0.5],[1,0.7],[1,0.9]];" parent="1" vertex="1">
          <mxGeometry x="-1680" y="1870" width="160" height="30" as="geometry" />
        </mxCell>
        <mxCell id="NvWkWuXcyiQm78Mj__-v-104" value="sol:SimpleValueSpecification" style="rounded=0;whiteSpace=wrap;html=1;snapToPoint=1;points=[[0.1,0],[0.2,0],[0.3,0],[0.4,0],[0.5,0],[0.6,0],[0.7,0],[0.8,0],[0.9,0],[0,0.1],[0,0.3],[0,0.5],[0,0.7],[0,0.9],[0.1,1],[0.2,1],[0.3,1],[0.4,1],[0.5,1],[0.6,1],[0.7,1],[0.8,1],[0.9,1],[1,0.1],[1,0.3],[1,0.5],[1,0.7],[1,0.9]];fillColor=#e1d5e7;strokeColor=#9673a6;" parent="1" vertex="1">
          <mxGeometry x="-1800" y="2010" width="160" height="30" as="geometry" />
        </mxCell>
        <mxCell id="NvWkWuXcyiQm78Mj__-v-105" value="sol:ArrayValueSpecification" style="rounded=0;whiteSpace=wrap;html=1;snapToPoint=1;points=[[0.1,0],[0.2,0],[0.3,0],[0.4,0],[0.5,0],[0.6,0],[0.7,0],[0.8,0],[0.9,0],[0,0.1],[0,0.3],[0,0.5],[0,0.7],[0,0.9],[0.1,1],[0.2,1],[0.3,1],[0.4,1],[0.5,1],[0.6,1],[0.7,1],[0.8,1],[0.9,1],[1,0.1],[1,0.3],[1,0.5],[1,0.7],[1,0.9]];fillColor=#e1d5e7;strokeColor=#9673a6;" parent="1" vertex="1">
          <mxGeometry x="-1560" y="2010" width="160" height="30" as="geometry" />
        </mxCell>
        <mxCell id="NvWkWuXcyiQm78Mj__-v-106" value="" style="endArrow=block;html=1;fontColor=#000099;endFill=0;endSize=8;arcSize=0;rounded=0;entryX=0.5;entryY=1;entryDx=0;entryDy=0;exitX=0.5;exitY=0;exitDx=0;exitDy=0;" parent="1" source="NvWkWuXcyiQm78Mj__-v-105" target="NvWkWuXcyiQm78Mj__-v-103" edge="1">
          <mxGeometry width="50" height="50" relative="1" as="geometry">
            <mxPoint x="-1400" y="2000" as="sourcePoint" />
            <mxPoint x="-1499" y="1920" as="targetPoint" />
            <Array as="points">
              <mxPoint x="-1480" y="1960" />
              <mxPoint x="-1600" y="1960" />
            </Array>
          </mxGeometry>
        </mxCell>
        <mxCell id="NvWkWuXcyiQm78Mj__-v-107" value="" style="endArrow=block;html=1;fontColor=#000099;endFill=0;endSize=8;arcSize=0;rounded=0;entryX=0.5;entryY=1;entryDx=0;entryDy=0;exitX=0.5;exitY=0;exitDx=0;exitDy=0;" parent="1" source="NvWkWuXcyiQm78Mj__-v-104" target="NvWkWuXcyiQm78Mj__-v-103" edge="1">
          <mxGeometry width="50" height="50" relative="1" as="geometry">
            <mxPoint x="-1470" y="2020" as="sourcePoint" />
            <mxPoint x="-1590" y="1910" as="targetPoint" />
            <Array as="points">
              <mxPoint x="-1720" y="1960" />
              <mxPoint x="-1600" y="1960" />
            </Array>
          </mxGeometry>
        </mxCell>
        <mxCell id="NvWkWuXcyiQm78Mj__-v-108" value="sol:isInmutable: boolean" style="rounded=0;whiteSpace=wrap;html=1;snapToPoint=1;points=[[0.1,0],[0.2,0],[0.3,0],[0.4,0],[0.5,0],[0.6,0],[0.7,0],[0.8,0],[0.9,0],[0,0.1],[0,0.3],[0,0.5],[0,0.7],[0,0.9],[0.1,1],[0.2,1],[0.3,1],[0.4,1],[0.5,1],[0.6,1],[0.7,1],[0.8,1],[0.9,1],[1,0.1],[1,0.3],[1,0.5],[1,0.7],[1,0.9]];" parent="1" vertex="1">
          <mxGeometry x="-48" y="1550" width="218" height="30" as="geometry" />
        </mxCell>
        <mxCell id="NvWkWuXcyiQm78Mj__-v-109" value="" style="endArrow=classic;html=1;exitX=0;exitY=0.7;exitDx=0;exitDy=0;endSize=8;arcSize=0;rounded=0;entryX=0.5;entryY=0;entryDx=0;entryDy=0;" parent="1" source="NvWkWuXcyiQm78Mj__-v-108" target="NvWkWuXcyiQm78Mj__-v-102" edge="1">
          <mxGeometry width="50" height="50" relative="1" as="geometry">
            <mxPoint x="-111" y="1680" as="sourcePoint" />
            <mxPoint x="-1230" y="1660" as="targetPoint" />
            <Array as="points">
              <mxPoint x="-120" y="1571" />
              <mxPoint x="-120" y="1680" />
              <mxPoint x="-1600" y="1680" />
            </Array>
          </mxGeometry>
        </mxCell>
        <mxCell id="NvWkWuXcyiQm78Mj__-v-110" value="sol:hasAttributeValue" style="text;html=1;align=center;verticalAlign=middle;resizable=0;points=[];labelBackgroundColor=#ffffff;" parent="NvWkWuXcyiQm78Mj__-v-109" vertex="1" connectable="0">
          <mxGeometry x="-0.1269" relative="1" as="geometry">
            <mxPoint x="-796" as="offset" />
          </mxGeometry>
        </mxCell>
        <mxCell id="NvWkWuXcyiQm78Mj__-v-111" value="sol:ArrayValue" style="rounded=0;whiteSpace=wrap;html=1;snapToPoint=1;points=[[0.1,0],[0.2,0],[0.3,0],[0.4,0],[0.5,0],[0.6,0],[0.7,0],[0.8,0],[0.9,0],[0,0.1],[0,0.3],[0,0.5],[0,0.7],[0,0.9],[0.1,1],[0.2,1],[0.3,1],[0.4,1],[0.5,1],[0.6,1],[0.7,1],[0.8,1],[0.9,1],[1,0.1],[1,0.3],[1,0.5],[1,0.7],[1,0.9]];" parent="1" vertex="1">
          <mxGeometry x="-1390" y="2090" width="160" height="30" as="geometry" />
        </mxCell>
        <mxCell id="NvWkWuXcyiQm78Mj__-v-112" value="sol:hasIndex: short" style="rounded=0;whiteSpace=wrap;html=1;snapToPoint=1;points=[[0.1,0],[0.2,0],[0.3,0],[0.4,0],[0.5,0],[0.6,0],[0.7,0],[0.8,0],[0.9,0],[0,0.1],[0,0.3],[0,0.5],[0,0.7],[0,0.9],[0.1,1],[0.2,1],[0.3,1],[0.4,1],[0.5,1],[0.6,1],[0.7,1],[0.8,1],[0.9,1],[1,0.1],[1,0.3],[1,0.5],[1,0.7],[1,0.9]];" parent="1" vertex="1">
          <mxGeometry x="-1390" y="2120" width="160" height="30" as="geometry" />
        </mxCell>
        <mxCell id="NvWkWuXcyiQm78Mj__-v-113" value="" style="endArrow=classic;html=1;exitX=1;exitY=0.5;exitDx=0;exitDy=0;endSize=8;arcSize=0;rounded=0;entryX=0.8;entryY=0;entryDx=0;entryDy=0;" parent="1" source="NvWkWuXcyiQm78Mj__-v-105" target="NvWkWuXcyiQm78Mj__-v-111" edge="1">
          <mxGeometry width="50" height="50" relative="1" as="geometry">
            <mxPoint x="-1121" y="1970" as="sourcePoint" />
            <mxPoint x="-1280" y="2042" as="targetPoint" />
            <Array as="points">
              <mxPoint x="-1262" y="2025" />
            </Array>
          </mxGeometry>
        </mxCell>
        <mxCell id="NvWkWuXcyiQm78Mj__-v-114" value="sol:hasArrayValue" style="text;html=1;align=center;verticalAlign=middle;resizable=0;points=[];labelBackgroundColor=#ffffff;" parent="NvWkWuXcyiQm78Mj__-v-113" vertex="1" connectable="0">
          <mxGeometry x="-0.1269" relative="1" as="geometry">
            <mxPoint x="22" as="offset" />
          </mxGeometry>
        </mxCell>
        <mxCell id="NvWkWuXcyiQm78Mj__-v-115" value="" style="endArrow=classic;html=1;exitX=0;exitY=0.3;exitDx=0;exitDy=0;endSize=8;arcSize=0;rounded=0;entryX=0.2;entryY=1;entryDx=0;entryDy=0;" parent="1" source="NvWkWuXcyiQm78Mj__-v-112" target="NvWkWuXcyiQm78Mj__-v-105" edge="1">
          <mxGeometry width="50" height="50" relative="1" as="geometry">
            <mxPoint x="-1549" y="2140" as="sourcePoint" />
            <mxPoint x="-1411" y="2205" as="targetPoint" />
            <Array as="points">
              <mxPoint x="-1528" y="2130" />
            </Array>
          </mxGeometry>
        </mxCell>
        <mxCell id="NvWkWuXcyiQm78Mj__-v-116" value="sol:hasIndexArrayValue" style="text;html=1;align=center;verticalAlign=middle;resizable=0;points=[];labelBackgroundColor=#ffffff;" parent="NvWkWuXcyiQm78Mj__-v-115" vertex="1" connectable="0">
          <mxGeometry x="-0.1269" relative="1" as="geometry">
            <mxPoint x="9" y="-5" as="offset" />
          </mxGeometry>
        </mxCell>
        <mxCell id="NvWkWuXcyiQm78Mj__-v-117" value="" style="endArrow=block;html=1;fontColor=#000099;endFill=0;endSize=8;arcSize=0;rounded=0;exitX=0.5;exitY=0;exitDx=0;exitDy=0;entryX=0.1;entryY=0;entryDx=0;entryDy=0;" parent="1" source="bmZF7T8KRYOrzVGl7_Tg-9" target="NvWkWuXcyiQm78Mj__-v-104" edge="1">
          <mxGeometry width="50" height="50" relative="1" as="geometry">
            <mxPoint x="251" y="225" as="sourcePoint" />
            <mxPoint x="9" y="1760" as="targetPoint" />
            <Array as="points">
              <mxPoint x="296" y="170" />
              <mxPoint x="-1784" y="170" />
              <mxPoint x="-1784" y="1790" />
            </Array>
          </mxGeometry>
        </mxCell>
        <mxCell id="NvWkWuXcyiQm78Mj__-v-118" value="sol:StringValue" style="rounded=0;whiteSpace=wrap;html=1;snapToPoint=1;points=[[0.1,0],[0.2,0],[0.3,0],[0.4,0],[0.5,0],[0.6,0],[0.7,0],[0.8,0],[0.9,0],[0,0.1],[0,0.3],[0,0.5],[0,0.7],[0,0.9],[0.1,1],[0.2,1],[0.3,1],[0.4,1],[0.5,1],[0.6,1],[0.7,1],[0.8,1],[0.9,1],[1,0.1],[1,0.3],[1,0.5],[1,0.7],[1,0.9]];" parent="1" vertex="1">
          <mxGeometry x="-1981" y="2231" width="160" height="30" as="geometry" />
        </mxCell>
        <mxCell id="NvWkWuXcyiQm78Mj__-v-119" value="sol:simpleString: string" style="rounded=0;whiteSpace=wrap;html=1;snapToPoint=1;points=[[0.1,0],[0.2,0],[0.3,0],[0.4,0],[0.5,0],[0.6,0],[0.7,0],[0.8,0],[0.9,0],[0,0.1],[0,0.3],[0,0.5],[0,0.7],[0,0.9],[0.1,1],[0.2,1],[0.3,1],[0.4,1],[0.5,1],[0.6,1],[0.7,1],[0.8,1],[0.9,1],[1,0.1],[1,0.3],[1,0.5],[1,0.7],[1,0.9]];" parent="1" vertex="1">
          <mxGeometry x="-1981" y="2261" width="160" height="30" as="geometry" />
        </mxCell>
        <mxCell id="NvWkWuXcyiQm78Mj__-v-120" value="sol:BoolValue" style="rounded=0;whiteSpace=wrap;html=1;snapToPoint=1;points=[[0.1,0],[0.2,0],[0.3,0],[0.4,0],[0.5,0],[0.6,0],[0.7,0],[0.8,0],[0.9,0],[0,0.1],[0,0.3],[0,0.5],[0,0.7],[0,0.9],[0.1,1],[0.2,1],[0.3,1],[0.4,1],[0.5,1],[0.6,1],[0.7,1],[0.8,1],[0.9,1],[1,0.1],[1,0.3],[1,0.5],[1,0.7],[1,0.9]];" parent="1" vertex="1">
          <mxGeometry x="-1801" y="2231" width="160" height="30" as="geometry" />
        </mxCell>
        <mxCell id="NvWkWuXcyiQm78Mj__-v-121" value="sol:simpleBool: string" style="rounded=0;whiteSpace=wrap;html=1;snapToPoint=1;points=[[0.1,0],[0.2,0],[0.3,0],[0.4,0],[0.5,0],[0.6,0],[0.7,0],[0.8,0],[0.9,0],[0,0.1],[0,0.3],[0,0.5],[0,0.7],[0,0.9],[0.1,1],[0.2,1],[0.3,1],[0.4,1],[0.5,1],[0.6,1],[0.7,1],[0.8,1],[0.9,1],[1,0.1],[1,0.3],[1,0.5],[1,0.7],[1,0.9]];" parent="1" vertex="1">
          <mxGeometry x="-1801" y="2261" width="160" height="30" as="geometry" />
        </mxCell>
        <mxCell id="NvWkWuXcyiQm78Mj__-v-122" value="sol:IntValue" style="rounded=0;whiteSpace=wrap;html=1;snapToPoint=1;points=[[0.1,0],[0.2,0],[0.3,0],[0.4,0],[0.5,0],[0.6,0],[0.7,0],[0.8,0],[0.9,0],[0,0.1],[0,0.3],[0,0.5],[0,0.7],[0,0.9],[0.1,1],[0.2,1],[0.3,1],[0.4,1],[0.5,1],[0.6,1],[0.7,1],[0.8,1],[0.9,1],[1,0.1],[1,0.3],[1,0.5],[1,0.7],[1,0.9]];" parent="1" vertex="1">
          <mxGeometry x="-1621" y="2231" width="160" height="30" as="geometry" />
        </mxCell>
        <mxCell id="NvWkWuXcyiQm78Mj__-v-123" value="sol:simpleInt: string" style="rounded=0;whiteSpace=wrap;html=1;snapToPoint=1;points=[[0.1,0],[0.2,0],[0.3,0],[0.4,0],[0.5,0],[0.6,0],[0.7,0],[0.8,0],[0.9,0],[0,0.1],[0,0.3],[0,0.5],[0,0.7],[0,0.9],[0.1,1],[0.2,1],[0.3,1],[0.4,1],[0.5,1],[0.6,1],[0.7,1],[0.8,1],[0.9,1],[1,0.1],[1,0.3],[1,0.5],[1,0.7],[1,0.9]];" parent="1" vertex="1">
          <mxGeometry x="-1621" y="2261" width="160" height="30" as="geometry" />
        </mxCell>
        <mxCell id="NvWkWuXcyiQm78Mj__-v-124" value="sol:FixedValue" style="rounded=0;whiteSpace=wrap;html=1;snapToPoint=1;points=[[0.1,0],[0.2,0],[0.3,0],[0.4,0],[0.5,0],[0.6,0],[0.7,0],[0.8,0],[0.9,0],[0,0.1],[0,0.3],[0,0.5],[0,0.7],[0,0.9],[0.1,1],[0.2,1],[0.3,1],[0.4,1],[0.5,1],[0.6,1],[0.7,1],[0.8,1],[0.9,1],[1,0.1],[1,0.3],[1,0.5],[1,0.7],[1,0.9]];" parent="1" vertex="1">
          <mxGeometry x="-1441" y="2231" width="160" height="30" as="geometry" />
        </mxCell>
        <mxCell id="NvWkWuXcyiQm78Mj__-v-125" value="sol:simpleFixed: string" style="rounded=0;whiteSpace=wrap;html=1;snapToPoint=1;points=[[0.1,0],[0.2,0],[0.3,0],[0.4,0],[0.5,0],[0.6,0],[0.7,0],[0.8,0],[0.9,0],[0,0.1],[0,0.3],[0,0.5],[0,0.7],[0,0.9],[0.1,1],[0.2,1],[0.3,1],[0.4,1],[0.5,1],[0.6,1],[0.7,1],[0.8,1],[0.9,1],[1,0.1],[1,0.3],[1,0.5],[1,0.7],[1,0.9]];" parent="1" vertex="1">
          <mxGeometry x="-1441" y="2261" width="160" height="30" as="geometry" />
        </mxCell>
        <mxCell id="NvWkWuXcyiQm78Mj__-v-126" value="sol:BytesValue" style="rounded=0;whiteSpace=wrap;html=1;snapToPoint=1;points=[[0.1,0],[0.2,0],[0.3,0],[0.4,0],[0.5,0],[0.6,0],[0.7,0],[0.8,0],[0.9,0],[0,0.1],[0,0.3],[0,0.5],[0,0.7],[0,0.9],[0.1,1],[0.2,1],[0.3,1],[0.4,1],[0.5,1],[0.6,1],[0.7,1],[0.8,1],[0.9,1],[1,0.1],[1,0.3],[1,0.5],[1,0.7],[1,0.9]];" parent="1" vertex="1">
          <mxGeometry x="-1261" y="2231" width="160" height="30" as="geometry" />
        </mxCell>
        <mxCell id="NvWkWuXcyiQm78Mj__-v-127" value="sol:simpleBytes: string" style="rounded=0;whiteSpace=wrap;html=1;snapToPoint=1;points=[[0.1,0],[0.2,0],[0.3,0],[0.4,0],[0.5,0],[0.6,0],[0.7,0],[0.8,0],[0.9,0],[0,0.1],[0,0.3],[0,0.5],[0,0.7],[0,0.9],[0.1,1],[0.2,1],[0.3,1],[0.4,1],[0.5,1],[0.6,1],[0.7,1],[0.8,1],[0.9,1],[1,0.1],[1,0.3],[1,0.5],[1,0.7],[1,0.9]];" parent="1" vertex="1">
          <mxGeometry x="-1261" y="2261" width="160" height="30" as="geometry" />
        </mxCell>
        <mxCell id="NvWkWuXcyiQm78Mj__-v-128" value="sol:GenericValue" style="rounded=0;whiteSpace=wrap;html=1;snapToPoint=1;points=[[0.1,0],[0.2,0],[0.3,0],[0.4,0],[0.5,0],[0.6,0],[0.7,0],[0.8,0],[0.9,0],[0,0.1],[0,0.3],[0,0.5],[0,0.7],[0,0.9],[0.1,1],[0.2,1],[0.3,1],[0.4,1],[0.5,1],[0.6,1],[0.7,1],[0.8,1],[0.9,1],[1,0.1],[1,0.3],[1,0.5],[1,0.7],[1,0.9]];" parent="1" vertex="1">
          <mxGeometry x="-1081" y="2231" width="160" height="30" as="geometry" />
        </mxCell>
        <mxCell id="NvWkWuXcyiQm78Mj__-v-129" value="sol:simpleGeneric: Literal" style="rounded=0;whiteSpace=wrap;html=1;snapToPoint=1;points=[[0.1,0],[0.2,0],[0.3,0],[0.4,0],[0.5,0],[0.6,0],[0.7,0],[0.8,0],[0.9,0],[0,0.1],[0,0.3],[0,0.5],[0,0.7],[0,0.9],[0.1,1],[0.2,1],[0.3,1],[0.4,1],[0.5,1],[0.6,1],[0.7,1],[0.8,1],[0.9,1],[1,0.1],[1,0.3],[1,0.5],[1,0.7],[1,0.9]];" parent="1" vertex="1">
          <mxGeometry x="-1081" y="2261" width="160" height="30" as="geometry" />
        </mxCell>
        <mxCell id="NvWkWuXcyiQm78Mj__-v-130" value="" style="endArrow=block;html=1;fontColor=#000099;endFill=0;endSize=8;arcSize=0;rounded=0;entryX=0.5;entryY=1;entryDx=0;entryDy=0;exitX=0.5;exitY=0;exitDx=0;exitDy=0;" parent="1" source="NvWkWuXcyiQm78Mj__-v-118" target="NvWkWuXcyiQm78Mj__-v-104" edge="1">
          <mxGeometry width="50" height="50" relative="1" as="geometry">
            <mxPoint x="-2060" y="2250" as="sourcePoint" />
            <mxPoint x="-1940" y="2140" as="targetPoint" />
            <Array as="points">
              <mxPoint x="-1900" y="2200" />
              <mxPoint x="-1720" y="2200" />
            </Array>
          </mxGeometry>
        </mxCell>
        <mxCell id="NvWkWuXcyiQm78Mj__-v-131" value="" style="endArrow=block;html=1;fontColor=#000099;endFill=0;endSize=8;arcSize=0;rounded=0;entryX=0.5;entryY=1;entryDx=0;entryDy=0;exitX=0.5;exitY=0;exitDx=0;exitDy=0;" parent="1" source="NvWkWuXcyiQm78Mj__-v-120" target="NvWkWuXcyiQm78Mj__-v-104" edge="1">
          <mxGeometry width="50" height="50" relative="1" as="geometry">
            <mxPoint x="-2190" y="2288" as="sourcePoint" />
            <mxPoint x="-1710" y="2050" as="targetPoint" />
            <Array as="points">
              <mxPoint x="-1720" y="2200" />
            </Array>
          </mxGeometry>
        </mxCell>
        <mxCell id="NvWkWuXcyiQm78Mj__-v-132" value="" style="endArrow=block;html=1;fontColor=#000099;endFill=0;endSize=8;arcSize=0;rounded=0;entryX=0.5;entryY=1;entryDx=0;entryDy=0;exitX=0.5;exitY=0;exitDx=0;exitDy=0;" parent="1" source="NvWkWuXcyiQm78Mj__-v-122" target="NvWkWuXcyiQm78Mj__-v-104" edge="1">
          <mxGeometry width="50" height="50" relative="1" as="geometry">
            <mxPoint x="-2010" y="2288" as="sourcePoint" />
            <mxPoint x="-1710" y="2050" as="targetPoint" />
            <Array as="points">
              <mxPoint x="-1541" y="2200" />
              <mxPoint x="-1720" y="2200" />
            </Array>
          </mxGeometry>
        </mxCell>
        <mxCell id="NvWkWuXcyiQm78Mj__-v-133" value="" style="endArrow=block;html=1;fontColor=#000099;endFill=0;endSize=8;arcSize=0;rounded=0;entryX=0.5;entryY=1;entryDx=0;entryDy=0;exitX=0.5;exitY=0;exitDx=0;exitDy=0;" parent="1" source="NvWkWuXcyiQm78Mj__-v-128" target="NvWkWuXcyiQm78Mj__-v-104" edge="1">
          <mxGeometry width="50" height="50" relative="1" as="geometry">
            <mxPoint x="-1830" y="2288" as="sourcePoint" />
            <mxPoint x="-1710" y="2050" as="targetPoint" />
            <Array as="points">
              <mxPoint x="-1000" y="2200" />
              <mxPoint x="-1720" y="2200" />
            </Array>
          </mxGeometry>
        </mxCell>
        <mxCell id="NvWkWuXcyiQm78Mj__-v-134" value="" style="endArrow=block;html=1;fontColor=#000099;endFill=0;endSize=8;arcSize=0;rounded=0;entryX=0.5;entryY=1;entryDx=0;entryDy=0;exitX=0.5;exitY=0;exitDx=0;exitDy=0;" parent="1" source="NvWkWuXcyiQm78Mj__-v-126" target="NvWkWuXcyiQm78Mj__-v-104" edge="1">
          <mxGeometry width="50" height="50" relative="1" as="geometry">
            <mxPoint x="-1820" y="2298" as="sourcePoint" />
            <mxPoint x="-1700" y="2060" as="targetPoint" />
            <Array as="points">
              <mxPoint x="-1180" y="2200" />
              <mxPoint x="-1720" y="2200" />
            </Array>
          </mxGeometry>
        </mxCell>
        <mxCell id="NvWkWuXcyiQm78Mj__-v-135" value="" style="endArrow=block;html=1;fontColor=#000099;endFill=0;endSize=8;arcSize=0;rounded=0;entryX=0.5;entryY=1;entryDx=0;entryDy=0;exitX=0.5;exitY=0;exitDx=0;exitDy=0;" parent="1" source="NvWkWuXcyiQm78Mj__-v-124" target="NvWkWuXcyiQm78Mj__-v-104" edge="1">
          <mxGeometry width="50" height="50" relative="1" as="geometry">
            <mxPoint x="-1810" y="2308" as="sourcePoint" />
            <mxPoint x="-1690" y="2070" as="targetPoint" />
            <Array as="points">
              <mxPoint x="-1360" y="2200" />
              <mxPoint x="-1720" y="2200" />
            </Array>
          </mxGeometry>
        </mxCell>
        <mxCell id="VwQgRgWJmOTr_TCFZZOl-3" value="" style="endArrow=open;html=1;fontColor=#000099;endFill=0;dashed=1;entryX=0.5;entryY=1;entryDx=0;entryDy=0;endSize=8;exitX=0.5;exitY=0;exitDx=0;exitDy=0;rounded=0;" parent="1" source="VwQgRgWJmOTr_TCFZZOl-5" target="7H-r3v3xN0h7ExLqmK3x-18" edge="1">
          <mxGeometry width="50" height="50" relative="1" as="geometry">
            <mxPoint x="-495.5" y="1260" as="sourcePoint" />
            <mxPoint x="-495.5" y="1180" as="targetPoint" />
          </mxGeometry>
        </mxCell>
        <mxCell id="VwQgRgWJmOTr_TCFZZOl-5" value="&lt;u&gt;sol:Payable&lt;/u&gt;" style="rounded=0;whiteSpace=wrap;html=1;snapToPoint=1;points=[[0.1,0],[0.2,0],[0.3,0],[0.4,0],[0.5,0],[0.6,0],[0.7,0],[0.8,0],[0.9,0],[0,0.1],[0,0.3],[0,0.5],[0,0.7],[0,0.9],[0.1,1],[0.2,1],[0.3,1],[0.4,1],[0.5,1],[0.6,1],[0.7,1],[0.8,1],[0.9,1],[1,0.1],[1,0.3],[1,0.5],[1,0.7],[1,0.9]];" parent="1" vertex="1">
          <mxGeometry x="-544.5" y="1195" width="100" height="30" as="geometry" />
        </mxCell>
        <mxCell id="VwQgRgWJmOTr_TCFZZOl-6" value="" style="endArrow=open;html=1;fontColor=#000099;endFill=0;dashed=1;entryX=0.5;entryY=1;entryDx=0;entryDy=0;endSize=8;exitX=0.5;exitY=0;exitDx=0;exitDy=0;rounded=0;" parent="1" source="VwQgRgWJmOTr_TCFZZOl-7" target="7H-r3v3xN0h7ExLqmK3x-24" edge="1">
          <mxGeometry width="50" height="50" relative="1" as="geometry">
            <mxPoint x="-201" y="1270" as="sourcePoint" />
            <mxPoint x="-199.5" y="1160" as="targetPoint" />
          </mxGeometry>
        </mxCell>
        <mxCell id="VwQgRgWJmOTr_TCFZZOl-7" value="&lt;u&gt;sol:External&lt;/u&gt;" style="rounded=0;whiteSpace=wrap;html=1;snapToPoint=1;points=[[0.1,0],[0.2,0],[0.3,0],[0.4,0],[0.5,0],[0.6,0],[0.7,0],[0.8,0],[0.9,0],[0,0.1],[0,0.3],[0,0.5],[0,0.7],[0,0.9],[0.1,1],[0.2,1],[0.3,1],[0.4,1],[0.5,1],[0.6,1],[0.7,1],[0.8,1],[0.9,1],[1,0.1],[1,0.3],[1,0.5],[1,0.7],[1,0.9]];" parent="1" vertex="1">
          <mxGeometry x="-252" y="1195" width="100" height="30" as="geometry" />
        </mxCell>
        <mxCell id="VwQgRgWJmOTr_TCFZZOl-8" value="&lt;u&gt;sol:Public&lt;/u&gt;" style="rounded=0;whiteSpace=wrap;html=1;snapToPoint=1;points=[[0.1,0],[0.2,0],[0.3,0],[0.4,0],[0.5,0],[0.6,0],[0.7,0],[0.8,0],[0.9,0],[0,0.1],[0,0.3],[0,0.5],[0,0.7],[0,0.9],[0.1,1],[0.2,1],[0.3,1],[0.4,1],[0.5,1],[0.6,1],[0.7,1],[0.8,1],[0.9,1],[1,0.1],[1,0.3],[1,0.5],[1,0.7],[1,0.9]];" parent="1" vertex="1">
          <mxGeometry x="-440" y="1561" width="100" height="30" as="geometry" />
        </mxCell>
        <mxCell id="VwQgRgWJmOTr_TCFZZOl-9" value="&lt;u&gt;sol:Private&lt;/u&gt;" style="rounded=0;whiteSpace=wrap;html=1;snapToPoint=1;points=[[0.1,0],[0.2,0],[0.3,0],[0.4,0],[0.5,0],[0.6,0],[0.7,0],[0.8,0],[0.9,0],[0,0.1],[0,0.3],[0,0.5],[0,0.7],[0,0.9],[0.1,1],[0.2,1],[0.3,1],[0.4,1],[0.5,1],[0.6,1],[0.7,1],[0.8,1],[0.9,1],[1,0.1],[1,0.3],[1,0.5],[1,0.7],[1,0.9]];" parent="1" vertex="1">
          <mxGeometry x="-440" y="1603" width="100" height="30" as="geometry" />
        </mxCell>
        <mxCell id="VwQgRgWJmOTr_TCFZZOl-10" value="&lt;u&gt;sol:Internal&lt;/u&gt;" style="rounded=0;whiteSpace=wrap;html=1;snapToPoint=1;points=[[0.1,0],[0.2,0],[0.3,0],[0.4,0],[0.5,0],[0.6,0],[0.7,0],[0.8,0],[0.9,0],[0,0.1],[0,0.3],[0,0.5],[0,0.7],[0,0.9],[0.1,1],[0.2,1],[0.3,1],[0.4,1],[0.5,1],[0.6,1],[0.7,1],[0.8,1],[0.9,1],[1,0.1],[1,0.3],[1,0.5],[1,0.7],[1,0.9]];" parent="1" vertex="1">
          <mxGeometry x="-440" y="1643" width="100" height="30" as="geometry" />
        </mxCell>
        <mxCell id="VwQgRgWJmOTr_TCFZZOl-12" value="" style="endArrow=open;html=1;fontColor=#000099;endFill=0;dashed=1;entryX=0.5;entryY=0;entryDx=0;entryDy=0;endSize=8;exitX=0;exitY=0.5;exitDx=0;exitDy=0;rounded=0;" parent="1" source="VwQgRgWJmOTr_TCFZZOl-7" target="7H-r3v3xN0h7ExLqmK3x-37" edge="1">
          <mxGeometry width="50" height="50" relative="1" as="geometry">
            <mxPoint x="-310" y="1288" as="sourcePoint" />
            <mxPoint x="-310" y="1230" as="targetPoint" />
            <Array as="points">
              <mxPoint x="-310" y="1210" />
            </Array>
          </mxGeometry>
        </mxCell>
        <mxCell id="VwQgRgWJmOTr_TCFZZOl-13" value="" style="endArrow=open;html=1;fontColor=#000099;endFill=0;dashed=1;endSize=8;exitX=1;exitY=0.5;exitDx=0;exitDy=0;rounded=0;entryX=0.5;entryY=1;entryDx=0;entryDy=0;" parent="1" source="VwQgRgWJmOTr_TCFZZOl-10" target="7H-r3v3xN0h7ExLqmK3x-37" edge="1">
          <mxGeometry width="50" height="50" relative="1" as="geometry">
            <mxPoint x="-242" y="1233" as="sourcePoint" />
            <mxPoint x="-230" y="1470" as="targetPoint" />
            <Array as="points">
              <mxPoint x="-310" y="1658" />
            </Array>
          </mxGeometry>
        </mxCell>
        <mxCell id="VwQgRgWJmOTr_TCFZZOl-14" value="" style="endArrow=open;html=1;fontColor=#000099;endFill=0;dashed=1;endSize=8;exitX=1;exitY=0.5;exitDx=0;exitDy=0;rounded=0;entryX=0.5;entryY=1;entryDx=0;entryDy=0;" parent="1" source="VwQgRgWJmOTr_TCFZZOl-9" target="7H-r3v3xN0h7ExLqmK3x-37" edge="1">
          <mxGeometry width="50" height="50" relative="1" as="geometry">
            <mxPoint x="-330" y="1668" as="sourcePoint" />
            <mxPoint x="-300" y="1561" as="targetPoint" />
            <Array as="points">
              <mxPoint x="-310" y="1618" />
            </Array>
          </mxGeometry>
        </mxCell>
        <mxCell id="VwQgRgWJmOTr_TCFZZOl-15" value="" style="endArrow=open;html=1;fontColor=#000099;endFill=0;dashed=1;endSize=8;exitX=1;exitY=0.5;exitDx=0;exitDy=0;rounded=0;" parent="1" source="VwQgRgWJmOTr_TCFZZOl-8" target="7H-r3v3xN0h7ExLqmK3x-37" edge="1">
          <mxGeometry width="50" height="50" relative="1" as="geometry">
            <mxPoint x="-320" y="1678" as="sourcePoint" />
            <mxPoint x="-290" y="1571" as="targetPoint" />
            <Array as="points">
              <mxPoint x="-310" y="1576" />
            </Array>
          </mxGeometry>
        </mxCell>
        <mxCell id="VwQgRgWJmOTr_TCFZZOl-16" value="&lt;u&gt;sol:Virtual&lt;/u&gt;" style="rounded=0;whiteSpace=wrap;html=1;snapToPoint=1;points=[[0.1,0],[0.2,0],[0.3,0],[0.4,0],[0.5,0],[0.6,0],[0.7,0],[0.8,0],[0.9,0],[0,0.1],[0,0.3],[0,0.5],[0,0.7],[0,0.9],[0.1,1],[0.2,1],[0.3,1],[0.4,1],[0.5,1],[0.6,1],[0.7,1],[0.8,1],[0.9,1],[1,0.1],[1,0.3],[1,0.5],[1,0.7],[1,0.9]];" parent="1" vertex="1">
          <mxGeometry x="1370" y="1220" width="100" height="30" as="geometry" />
        </mxCell>
        <mxCell id="VwQgRgWJmOTr_TCFZZOl-17" value="&lt;u&gt;sol:Override&lt;/u&gt;" style="rounded=0;whiteSpace=wrap;html=1;snapToPoint=1;points=[[0.1,0],[0.2,0],[0.3,0],[0.4,0],[0.5,0],[0.6,0],[0.7,0],[0.8,0],[0.9,0],[0,0.1],[0,0.3],[0,0.5],[0,0.7],[0,0.9],[0.1,1],[0.2,1],[0.3,1],[0.4,1],[0.5,1],[0.6,1],[0.7,1],[0.8,1],[0.9,1],[1,0.1],[1,0.3],[1,0.5],[1,0.7],[1,0.9]];" parent="1" vertex="1">
          <mxGeometry x="1370" y="1260" width="100" height="30" as="geometry" />
        </mxCell>
        <mxCell id="VwQgRgWJmOTr_TCFZZOl-18" value="&lt;u&gt;sol:Calldata&lt;/u&gt;" style="rounded=0;whiteSpace=wrap;html=1;snapToPoint=1;points=[[0.1,0],[0.2,0],[0.3,0],[0.4,0],[0.5,0],[0.6,0],[0.7,0],[0.8,0],[0.9,0],[0,0.1],[0,0.3],[0,0.5],[0,0.7],[0,0.9],[0.1,1],[0.2,1],[0.3,1],[0.4,1],[0.5,1],[0.6,1],[0.7,1],[0.8,1],[0.9,1],[1,0.1],[1,0.3],[1,0.5],[1,0.7],[1,0.9]];" parent="1" vertex="1">
          <mxGeometry x="1400" y="1670" width="100" height="30" as="geometry" />
        </mxCell>
        <mxCell id="VwQgRgWJmOTr_TCFZZOl-19" value="&lt;u&gt;sol:Memory&lt;/u&gt;" style="rounded=0;whiteSpace=wrap;html=1;snapToPoint=1;points=[[0.1,0],[0.2,0],[0.3,0],[0.4,0],[0.5,0],[0.6,0],[0.7,0],[0.8,0],[0.9,0],[0,0.1],[0,0.3],[0,0.5],[0,0.7],[0,0.9],[0.1,1],[0.2,1],[0.3,1],[0.4,1],[0.5,1],[0.6,1],[0.7,1],[0.8,1],[0.9,1],[1,0.1],[1,0.3],[1,0.5],[1,0.7],[1,0.9]];" parent="1" vertex="1">
          <mxGeometry x="1400" y="1710" width="100" height="30" as="geometry" />
        </mxCell>
        <mxCell id="VwQgRgWJmOTr_TCFZZOl-20" value="&lt;u&gt;sol:Storage&lt;/u&gt;" style="rounded=0;whiteSpace=wrap;html=1;snapToPoint=1;points=[[0.1,0],[0.2,0],[0.3,0],[0.4,0],[0.5,0],[0.6,0],[0.7,0],[0.8,0],[0.9,0],[0,0.1],[0,0.3],[0,0.5],[0,0.7],[0,0.9],[0.1,1],[0.2,1],[0.3,1],[0.4,1],[0.5,1],[0.6,1],[0.7,1],[0.8,1],[0.9,1],[1,0.1],[1,0.3],[1,0.5],[1,0.7],[1,0.9]];" parent="1" vertex="1">
          <mxGeometry x="1400" y="1750" width="100" height="30" as="geometry" />
        </mxCell>
        <mxCell id="VwQgRgWJmOTr_TCFZZOl-22" value="" style="endArrow=open;html=1;fontColor=#000099;endFill=0;dashed=1;endSize=8;exitX=1;exitY=0.5;exitDx=0;exitDy=0;rounded=0;entryX=0.5;entryY=1;entryDx=0;entryDy=0;" parent="1" source="VwQgRgWJmOTr_TCFZZOl-20" target="NvWkWuXcyiQm78Mj__-v-53" edge="1">
          <mxGeometry width="50" height="50" relative="1" as="geometry">
            <mxPoint x="1560" y="1917" as="sourcePoint" />
            <mxPoint x="1540" y="1690" as="targetPoint" />
            <Array as="points">
              <mxPoint x="1540" y="1765" />
            </Array>
          </mxGeometry>
        </mxCell>
        <mxCell id="VwQgRgWJmOTr_TCFZZOl-24" value="" style="endArrow=open;html=1;fontColor=#000099;endFill=0;dashed=1;endSize=8;exitX=1;exitY=0.5;exitDx=0;exitDy=0;rounded=0;entryX=0.5;entryY=1;entryDx=0;entryDy=0;" parent="1" source="VwQgRgWJmOTr_TCFZZOl-19" target="NvWkWuXcyiQm78Mj__-v-53" edge="1">
          <mxGeometry width="50" height="50" relative="1" as="geometry">
            <mxPoint x="1520" y="1865" as="sourcePoint" />
            <mxPoint x="1539.7777777777774" y="1690" as="targetPoint" />
            <Array as="points">
              <mxPoint x="1540" y="1725" />
            </Array>
          </mxGeometry>
        </mxCell>
        <mxCell id="VwQgRgWJmOTr_TCFZZOl-25" value="" style="endArrow=open;html=1;fontColor=#000099;endFill=0;dashed=1;endSize=8;exitX=1;exitY=0.5;exitDx=0;exitDy=0;rounded=0;entryX=0.5;entryY=1;entryDx=0;entryDy=0;" parent="1" source="VwQgRgWJmOTr_TCFZZOl-18" target="NvWkWuXcyiQm78Mj__-v-53" edge="1">
          <mxGeometry width="50" height="50" relative="1" as="geometry">
            <mxPoint x="1530" y="1875" as="sourcePoint" />
            <mxPoint x="1540" y="1690" as="targetPoint" />
            <Array as="points">
              <mxPoint x="1540" y="1685" />
            </Array>
          </mxGeometry>
        </mxCell>
        <mxCell id="VwQgRgWJmOTr_TCFZZOl-26" value="" style="endArrow=open;html=1;fontColor=#000099;endFill=0;dashed=1;endSize=8;exitX=1;exitY=0.5;exitDx=0;exitDy=0;rounded=0;entryX=0.8;entryY=1;entryDx=0;entryDy=0;" parent="1" source="VwQgRgWJmOTr_TCFZZOl-16" target="NvWkWuXcyiQm78Mj__-v-83" edge="1">
          <mxGeometry width="50" height="50" relative="1" as="geometry">
            <mxPoint x="1480" y="1238" as="sourcePoint" />
            <mxPoint x="1507.999999999999" y="1180" as="targetPoint" />
            <Array as="points">
              <mxPoint x="1508" y="1235" />
            </Array>
          </mxGeometry>
        </mxCell>
        <mxCell id="VwQgRgWJmOTr_TCFZZOl-27" value="" style="endArrow=open;html=1;fontColor=#000099;endFill=0;dashed=1;endSize=8;exitX=1;exitY=0.5;exitDx=0;exitDy=0;rounded=0;entryX=0.8;entryY=1;entryDx=0;entryDy=0;" parent="1" source="VwQgRgWJmOTr_TCFZZOl-17" target="NvWkWuXcyiQm78Mj__-v-83" edge="1">
          <mxGeometry width="50" height="50" relative="1" as="geometry">
            <mxPoint x="1480" y="1245" as="sourcePoint" />
            <mxPoint x="1507.999999999999" y="1180" as="targetPoint" />
            <Array as="points">
              <mxPoint x="1508" y="1275" />
            </Array>
          </mxGeometry>
        </mxCell>
        <mxCell id="VwQgRgWJmOTr_TCFZZOl-28" value="" style="endArrow=open;html=1;fontColor=#000099;endFill=0;dashed=1;endSize=8;exitX=0;exitY=0.5;exitDx=0;exitDy=0;rounded=0;entryX=0.7;entryY=1;entryDx=0;entryDy=0;" parent="1" source="VwQgRgWJmOTr_TCFZZOl-16" target="NvWkWuXcyiQm78Mj__-v-59" edge="1">
          <mxGeometry width="50" height="50" relative="1" as="geometry">
            <mxPoint x="1149" y="1238" as="sourcePoint" />
            <mxPoint x="580" y="1235" as="targetPoint" />
            <Array as="points">
              <mxPoint x="526" y="1235" />
            </Array>
          </mxGeometry>
        </mxCell>
        <mxCell id="VwQgRgWJmOTr_TCFZZOl-29" value="" style="endArrow=open;html=1;fontColor=#000099;endFill=0;dashed=1;endSize=8;exitX=0;exitY=0.5;exitDx=0;exitDy=0;rounded=0;entryX=0.7;entryY=1;entryDx=0;entryDy=0;" parent="1" source="VwQgRgWJmOTr_TCFZZOl-17" target="NvWkWuXcyiQm78Mj__-v-59" edge="1">
          <mxGeometry width="50" height="50" relative="1" as="geometry">
            <mxPoint x="1359" y="1274.5" as="sourcePoint" />
            <mxPoint x="570" y="1280" as="targetPoint" />
            <Array as="points">
              <mxPoint x="526" y="1275" />
            </Array>
          </mxGeometry>
        </mxCell>
        <mxCell id="VwQgRgWJmOTr_TCFZZOl-30" value="&lt;u&gt;sol:Pure&lt;/u&gt;" style="rounded=0;whiteSpace=wrap;html=1;snapToPoint=1;points=[[0.1,0],[0.2,0],[0.3,0],[0.4,0],[0.5,0],[0.6,0],[0.7,0],[0.8,0],[0.9,0],[0,0.1],[0,0.3],[0,0.5],[0,0.7],[0,0.9],[0.1,1],[0.2,1],[0.3,1],[0.4,1],[0.5,1],[0.6,1],[0.7,1],[0.8,1],[0.9,1],[1,0.1],[1,0.3],[1,0.5],[1,0.7],[1,0.9]];" parent="1" vertex="1">
          <mxGeometry x="385" y="1169" width="100" height="30" as="geometry" />
        </mxCell>
        <mxCell id="VwQgRgWJmOTr_TCFZZOl-31" value="&lt;u&gt;sol:View&lt;/u&gt;" style="rounded=0;whiteSpace=wrap;html=1;snapToPoint=1;points=[[0.1,0],[0.2,0],[0.3,0],[0.4,0],[0.5,0],[0.6,0],[0.7,0],[0.8,0],[0.9,0],[0,0.1],[0,0.3],[0,0.5],[0,0.7],[0,0.9],[0.1,1],[0.2,1],[0.3,1],[0.4,1],[0.5,1],[0.6,1],[0.7,1],[0.8,1],[0.9,1],[1,0.1],[1,0.3],[1,0.5],[1,0.7],[1,0.9]];" parent="1" vertex="1">
          <mxGeometry x="385" y="1209" width="100" height="30" as="geometry" />
        </mxCell>
        <mxCell id="VwQgRgWJmOTr_TCFZZOl-32" value="&lt;u&gt;sol:Payable&lt;/u&gt;" style="rounded=0;whiteSpace=wrap;html=1;snapToPoint=1;points=[[0.1,0],[0.2,0],[0.3,0],[0.4,0],[0.5,0],[0.6,0],[0.7,0],[0.8,0],[0.9,0],[0,0.1],[0,0.3],[0,0.5],[0,0.7],[0,0.9],[0.1,1],[0.2,1],[0.3,1],[0.4,1],[0.5,1],[0.6,1],[0.7,1],[0.8,1],[0.9,1],[1,0.1],[1,0.3],[1,0.5],[1,0.7],[1,0.9]];" parent="1" vertex="1">
          <mxGeometry x="385" y="1250" width="100" height="30" as="geometry" />
        </mxCell>
        <mxCell id="VwQgRgWJmOTr_TCFZZOl-33" value="" style="endArrow=open;html=1;fontColor=#000099;endFill=0;dashed=1;endSize=8;exitX=1;exitY=0.5;exitDx=0;exitDy=0;rounded=0;entryX=0.7;entryY=1;entryDx=0;entryDy=0;" parent="1" source="VwQgRgWJmOTr_TCFZZOl-32" target="NvWkWuXcyiQm78Mj__-v-59" edge="1">
          <mxGeometry width="50" height="50" relative="1" as="geometry">
            <mxPoint x="500" y="1270.5" as="sourcePoint" />
            <mxPoint x="538" y="1175.5" as="targetPoint" />
            <Array as="points">
              <mxPoint x="526" y="1265" />
            </Array>
          </mxGeometry>
        </mxCell>
        <mxCell id="VwQgRgWJmOTr_TCFZZOl-34" value="" style="endArrow=open;html=1;fontColor=#000099;endFill=0;dashed=1;endSize=8;exitX=1;exitY=0.5;exitDx=0;exitDy=0;rounded=0;entryX=0.7;entryY=1;entryDx=0;entryDy=0;" parent="1" source="VwQgRgWJmOTr_TCFZZOl-30" target="NvWkWuXcyiQm78Mj__-v-59" edge="1">
          <mxGeometry width="50" height="50" relative="1" as="geometry">
            <mxPoint x="495" y="1275" as="sourcePoint" />
            <mxPoint x="536" y="1145" as="targetPoint" />
            <Array as="points">
              <mxPoint x="526" y="1184" />
            </Array>
          </mxGeometry>
        </mxCell>
        <mxCell id="VwQgRgWJmOTr_TCFZZOl-35" value="" style="endArrow=open;html=1;fontColor=#000099;endFill=0;dashed=1;endSize=8;exitX=1;exitY=0.5;exitDx=0;exitDy=0;rounded=0;entryX=0.7;entryY=0.975;entryDx=0;entryDy=0;entryPerimeter=0;" parent="1" source="VwQgRgWJmOTr_TCFZZOl-31" target="NvWkWuXcyiQm78Mj__-v-59" edge="1">
          <mxGeometry width="50" height="50" relative="1" as="geometry">
            <mxPoint x="495" y="1275" as="sourcePoint" />
            <mxPoint x="536" y="1145" as="targetPoint" />
            <Array as="points">
              <mxPoint x="526" y="1224" />
            </Array>
          </mxGeometry>
        </mxCell>
        <mxCell id="qqJuGU7iJpzgTH4QgBaA-1" value="" style="endArrow=classic;html=1;exitX=0;exitY=0.5;exitDx=0;exitDy=0;endSize=8;arcSize=0;rounded=0;entryX=1;entryY=0.5;entryDx=0;entryDy=0;" parent="1" source="bmZF7T8KRYOrzVGl7_Tg-9" target="qqJuGU7iJpzgTH4QgBaA-3" edge="1">
          <mxGeometry width="50" height="50" relative="1" as="geometry">
            <mxPoint x="200" y="310" as="sourcePoint" />
            <mxPoint x="60" y="300" as="targetPoint" />
            <Array as="points" />
          </mxGeometry>
        </mxCell>
        <mxCell id="qqJuGU7iJpzgTH4QgBaA-2" value="sol:hasImport" style="text;html=1;align=center;verticalAlign=middle;resizable=0;points=[];labelBackgroundColor=#ffffff;" parent="qqJuGU7iJpzgTH4QgBaA-1" vertex="1" connectable="0">
          <mxGeometry x="-0.1269" relative="1" as="geometry">
            <mxPoint as="offset" />
          </mxGeometry>
        </mxCell>
        <mxCell id="qqJuGU7iJpzgTH4QgBaA-3" value="sol:Import" style="rounded=0;whiteSpace=wrap;html=1;snapToPoint=1;points=[[0.1,0],[0.2,0],[0.3,0],[0.4,0],[0.5,0],[0.6,0],[0.7,0],[0.8,0],[0.9,0],[0,0.1],[0,0.3],[0,0.5],[0,0.7],[0,0.9],[0.1,1],[0.2,1],[0.3,1],[0.4,1],[0.5,1],[0.6,1],[0.7,1],[0.8,1],[0.9,1],[1,0.1],[1,0.3],[1,0.5],[1,0.7],[1,0.9]];fillColor=#ffe6cc;strokeColor=#d79b00;" parent="1" vertex="1">
          <mxGeometry x="-297" y="240" width="172" height="30" as="geometry" />
        </mxCell>
        <mxCell id="qqJuGU7iJpzgTH4QgBaA-4" value="sol:importName: string&lt;br&gt;sol:importFrom: string" style="rounded=0;whiteSpace=wrap;html=1;snapToPoint=1;points=[[0.1,0],[0.2,0],[0.3,0],[0.4,0],[0.5,0],[0.6,0],[0.7,0],[0.8,0],[0.9,0],[0,0.1],[0,0.3],[0,0.5],[0,0.7],[0,0.9],[0.1,1],[0.2,1],[0.3,1],[0.4,1],[0.5,1],[0.6,1],[0.7,1],[0.8,1],[0.9,1],[1,0.1],[1,0.3],[1,0.5],[1,0.7],[1,0.9]];" parent="1" vertex="1">
          <mxGeometry x="-297" y="270" width="172" height="46" as="geometry" />
        </mxCell>
        <mxCell id="ueeNUcTvmL_nMMkYw8yx-1" value="" style="endArrow=classic;html=1;exitX=0;exitY=0.5;exitDx=0;exitDy=0;endSize=8;arcSize=0;rounded=0;entryX=0.9;entryY=0;entryDx=0;entryDy=0;" parent="1" source="NvWkWuXcyiQm78Mj__-v-59" target="7H-r3v3xN0h7ExLqmK3x-37" edge="1">
          <mxGeometry width="50" height="50" relative="1" as="geometry">
            <mxPoint x="376" y="976" as="sourcePoint" />
            <mxPoint x="246" y="1120" as="targetPoint" />
            <Array as="points">
              <mxPoint x="370" y="1120" />
              <mxPoint x="200" y="1120" />
              <mxPoint x="200" y="1200" />
              <mxPoint x="200" y="1370" />
              <mxPoint x="-246" y="1370" />
            </Array>
          </mxGeometry>
        </mxCell>
        <mxCell id="ueeNUcTvmL_nMMkYw8yx-2" value="sol:hasFunctionVisibility" style="text;html=1;align=center;verticalAlign=middle;resizable=0;points=[];labelBackgroundColor=#ffffff;rotation=0;" parent="ueeNUcTvmL_nMMkYw8yx-1" vertex="1" connectable="0">
          <mxGeometry x="-0.1269" relative="1" as="geometry">
            <mxPoint x="40" y="-249" as="offset" />
          </mxGeometry>
        </mxCell>
        <mxCell id="ErEDPl7P9zilhOChuAwU-3" value="" style="endArrow=classic;html=1;exitX=0.2;exitY=0;exitDx=0;exitDy=0;endSize=8;arcSize=0;rounded=0;entryX=0.4;entryY=0;entryDx=0;entryDy=0;" parent="1" source="bmZF7T8KRYOrzVGl7_Tg-3" target="bmZF7T8KRYOrzVGl7_Tg-3" edge="1">
          <mxGeometry width="50" height="50" relative="1" as="geometry">
            <mxPoint x="124" y="404" as="sourcePoint" />
            <mxPoint x="190" y="360" as="targetPoint" />
            <Array as="points">
              <mxPoint x="148" y="330" />
              <mxPoint x="183" y="330" />
            </Array>
          </mxGeometry>
        </mxCell>
        <mxCell id="ErEDPl7P9zilhOChuAwU-4" value="sol:hasInherintance" style="text;html=1;align=center;verticalAlign=middle;resizable=0;points=[];labelBackgroundColor=#ffffff;" parent="ErEDPl7P9zilhOChuAwU-3" vertex="1" connectable="0">
          <mxGeometry x="-0.1269" relative="1" as="geometry">
            <mxPoint x="-17" y="10" as="offset" />
          </mxGeometry>
        </mxCell>
        <mxCell id="ErEDPl7P9zilhOChuAwU-5" value="" style="endArrow=block;html=1;fontColor=#000099;exitX=0.7;exitY=0;exitDx=0;exitDy=0;endFill=0;endSize=8;arcSize=0;rounded=0;entryX=0;entryY=0.7;entryDx=0;entryDy=0;" parent="1" source="7H-r3v3xN0h7ExLqmK3x-7" target="bmZF7T8KRYOrzVGl7_Tg-8" edge="1">
          <mxGeometry width="50" height="50" relative="1" as="geometry">
            <mxPoint x="64" y="131" as="sourcePoint" />
            <mxPoint x="120" y="230" as="targetPoint" />
            <Array as="points">
              <mxPoint x="40" y="310" />
              <mxPoint x="140" y="310" />
            </Array>
          </mxGeometry>
        </mxCell>
      </root>
    </mxGraphModel>
  </diagram>
</mxfile>
